<?xml version="1.0" standalone="no"?>
<!DOCTYPE svg PUBLIC "-//W3C//DTD SVG 20010904//EN"
 "http://www.w3.org/TR/2001/REC-SVG-20010904/DTD/svg10.dtd">
<svg version="1.0" xmlns="http://www.w3.org/2000/svg"
 width="2046.000000pt" height="2055.000000pt" viewBox="0 0 2046.000000 2055.000000"
 preserveAspectRatio="xMidYMid meet">
<metadata>
Created by potrace 1.16, written by Peter Selinger 2001-2019
</metadata>
<g transform="translate(0.000000,2055.000000) scale(0.100000,-0.100000)"
fill="#143D4B" stroke="none">
<path d="M9660 20178 c-345 -27 -486 -41 -575 -53 -55 -8 -138 -19 -185 -25
-47 -6 -123 -17 -170 -25 -47 -8 -125 -19 -175 -26 -88 -11 -347 -61 -515 -99
-47 -11 -110 -25 -140 -31 -30 -6 -64 -14 -75 -19 -11 -4 -58 -17 -105 -28
-47 -11 -98 -25 -115 -31 -16 -5 -57 -17 -90 -26 -33 -9 -80 -23 -105 -30 -25
-8 -61 -17 -80 -21 -19 -3 -39 -9 -45 -13 -5 -4 -77 -29 -160 -56 -183 -58
-201 -64 -295 -104 -41 -17 -80 -31 -86 -31 -6 0 -42 -13 -80 -29 -38 -16
-100 -42 -137 -56 -317 -122 -788 -354 -1159 -570 -31 -18 -66 -36 -79 -40
-13 -4 -43 -22 -68 -39 -25 -18 -68 -45 -96 -60 -27 -16 -121 -77 -208 -135
-87 -58 -187 -124 -222 -146 -97 -61 -219 -146 -226 -157 -3 -5 -18 -17 -32
-26 -49 -33 -232 -166 -237 -173 -3 -4 -41 -34 -85 -66 -44 -33 -93 -73 -110
-89 -16 -16 -56 -49 -87 -74 -295 -233 -857 -781 -1141 -1114 -180 -211 -275
-326 -317 -385 -25 -35 -68 -91 -95 -125 -28 -33 -72 -92 -98 -131 -27 -38
-68 -97 -92 -130 -24 -33 -65 -93 -92 -133 -142 -214 -216 -329 -263 -409 -29
-48 -66 -106 -82 -128 -15 -22 -44 -74 -64 -115 -20 -41 -41 -84 -47 -95 -27
-49 -42 -75 -88 -155 -71 -124 -290 -569 -334 -680 -20 -52 -52 -126 -70 -165
-18 -38 -47 -108 -64 -155 -30 -79 -40 -103 -69 -170 -18 -41 -58 -150 -85
-230 -14 -42 -30 -87 -36 -100 -5 -14 -17 -52 -27 -85 -36 -129 -67 -232 -85
-279 -11 -27 -19 -54 -19 -60 0 -7 -15 -66 -34 -131 -42 -151 -80 -298 -101
-395 -9 -41 -23 -102 -30 -135 -39 -173 -62 -292 -79 -410 -2 -16 -14 -91 -26
-165 -12 -74 -28 -207 -36 -295 -7 -88 -23 -254 -35 -370 -18 -178 -22 -293
-26 -760 -4 -495 -2 -572 16 -770 29 -315 49 -517 61 -615 27 -228 99 -666
123 -740 6 -19 14 -53 18 -75 12 -68 73 -319 110 -455 11 -41 31 -115 44 -165
13 -49 33 -117 45 -150 12 -33 27 -85 34 -115 20 -86 37 -143 48 -164 5 -10
20 -50 33 -90 13 -39 38 -109 55 -156 18 -47 38 -106 46 -132 8 -26 19 -50 24
-53 6 -3 10 -15 10 -26 0 -10 4 -27 9 -37 26 -52 51 -111 51 -122 0 -6 6 -24
14 -38 27 -53 68 -145 91 -206 13 -34 55 -127 93 -207 38 -79 82 -171 97 -204
15 -33 45 -91 66 -128 22 -38 39 -73 39 -77 0 -5 25 -52 56 -106 75 -128 97
-169 130 -229 14 -27 50 -86 78 -130 29 -44 62 -100 75 -125 13 -25 37 -63 53
-85 16 -22 55 -83 88 -135 32 -52 74 -115 92 -140 18 -24 39 -55 47 -70 8 -14
17 -27 20 -30 4 -3 21 -25 37 -50 65 -96 130 -186 249 -344 91 -121 301 -377
334 -406 9 -8 34 -37 56 -65 106 -134 578 -618 795 -816 142 -130 282 -253
339 -297 27 -22 78 -64 113 -95 35 -30 122 -101 193 -156 72 -55 150 -116 175
-135 44 -34 191 -140 335 -239 39 -27 88 -62 110 -78 53 -38 196 -125 265
-161 14 -7 27 -16 30 -20 9 -12 83 -60 140 -90 30 -16 73 -40 95 -52 119 -70
242 -135 430 -229 235 -117 442 -217 450 -217 3 0 36 -14 73 -31 85 -40 114
-52 182 -77 30 -11 102 -38 160 -61 154 -62 226 -89 310 -117 41 -14 84 -29
95 -33 37 -15 90 -33 120 -41 17 -5 44 -13 60 -19 17 -6 80 -26 140 -45 61
-19 142 -44 180 -57 39 -12 102 -28 140 -34 39 -7 126 -27 195 -45 410 -103
661 -151 1090 -205 475 -60 600 -68 1164 -72 335 -3 558 0 650 7 78 7 191 16
251 20 61 5 151 13 200 19 50 6 146 18 215 27 69 8 152 20 185 26 33 6 89 14
125 19 112 14 296 51 555 113 354 84 482 116 560 140 22 7 67 21 100 31 33 9
105 33 160 52 55 19 120 41 145 48 25 6 75 24 111 39 36 14 69 26 73 26 5 0
22 6 39 14 18 7 111 44 207 81 287 110 420 170 815 366 88 43 163 79 166 79 3
0 52 26 110 58 57 32 138 76 179 99 106 57 148 82 202 120 26 18 50 33 53 33
3 0 28 16 56 35 27 20 60 40 72 46 28 13 45 23 135 84 41 28 95 64 121 80 26
17 68 46 94 65 25 19 78 58 118 85 128 90 314 228 335 249 12 12 54 46 95 76
40 30 94 73 119 96 25 22 55 47 67 55 21 14 141 119 188 164 12 11 37 33 56
49 155 129 570 541 750 746 66 74 143 162 173 195 29 33 86 100 127 150 41 49
80 97 87 105 18 20 151 188 182 230 14 18 36 48 50 66 14 19 43 59 65 89 22
31 58 80 80 110 50 68 114 161 168 245 23 36 50 77 60 90 27 39 123 185 131
201 14 27 51 87 84 133 17 26 73 122 123 214 51 92 95 172 99 177 20 25 300
595 300 610 0 7 60 151 105 250 33 73 119 290 145 365 12 36 26 73 31 82 5 10
9 24 9 32 0 7 11 39 25 70 14 31 29 73 34 94 5 20 14 51 20 67 16 46 92 294
108 355 8 30 21 78 28 105 27 100 44 161 60 215 19 69 44 180 54 245 4 28 12
66 18 85 20 62 73 334 73 372 0 12 4 35 10 52 21 68 61 354 85 606 3 30 12
118 19 195 39 379 41 425 41 930 0 331 -5 566 -13 670 -16 201 -49 504 -62
570 -5 28 -14 100 -20 160 -16 169 -51 378 -106 620 -7 33 -20 94 -29 135 -9
41 -22 98 -30 125 -8 28 -30 115 -50 195 -20 80 -47 183 -61 230 -13 47 -29
101 -34 120 -6 19 -22 71 -36 115 -14 44 -38 123 -54 175 -36 120 -59 182 -71
195 -5 5 -9 18 -9 30 0 12 -4 25 -8 31 -5 5 -19 43 -32 84 -13 41 -27 82 -31
90 -16 30 -49 113 -49 121 0 5 -22 55 -49 112 -26 56 -52 113 -56 127 -4 14
-20 52 -35 85 -15 33 -38 87 -51 120 -41 106 -292 595 -330 644 -11 13 -19 29
-19 35 0 7 -11 27 -24 44 -13 18 -31 54 -41 80 -10 26 -25 56 -35 67 -9 11
-38 56 -64 100 -26 44 -65 107 -87 140 -21 33 -46 74 -54 90 -9 17 -29 48 -46
70 -33 45 -63 88 -128 190 -24 39 -67 99 -95 135 -50 63 -120 162 -141 198 -5
9 -31 42 -56 72 -25 30 -67 84 -93 120 -27 36 -57 74 -67 85 -10 11 -55 65
-101 120 -45 55 -120 143 -168 195 -47 52 -114 129 -150 170 -123 144 -612
622 -781 762 -139 116 -258 218 -289 247 -19 18 -62 51 -95 74 -33 22 -95 68
-137 101 -42 34 -93 72 -113 86 -20 14 -50 36 -66 50 -66 57 -83 70 -91 70 -4
0 -32 19 -62 43 -29 23 -93 67 -142 97 -49 30 -102 67 -119 81 -16 14 -37 29
-45 32 -8 4 -28 16 -45 27 -16 11 -41 25 -55 32 -14 7 -58 34 -97 60 -40 27
-75 48 -77 48 -3 0 -31 18 -62 40 -32 22 -61 40 -65 40 -4 0 -49 24 -101 53
-183 106 -394 217 -498 265 -14 7 -32 16 -40 21 -8 5 -42 22 -75 37 -33 14
-91 41 -130 59 -199 93 -193 90 -500 216 -89 36 -250 95 -310 114 -27 8 -97
31 -155 51 -58 20 -126 42 -152 49 -26 8 -107 32 -180 55 -73 22 -149 45 -168
50 -66 18 -165 42 -190 47 -14 2 -34 8 -45 13 -11 4 -63 18 -115 29 -52 12
-111 26 -130 31 -19 5 -73 16 -120 25 -47 9 -98 20 -115 25 -36 10 -147 27
-235 35 -36 3 -81 10 -101 15 -125 33 -564 84 -1029 120 -157 12 -976 11
-1130 -2z m1073 -298 c405 -27 435 -30 782 -69 44 -5 105 -14 135 -20 30 -6
116 -20 190 -32 158 -25 364 -65 435 -84 28 -8 75 -17 105 -20 52 -7 176 -35
300 -69 30 -8 91 -24 135 -36 81 -21 263 -75 300 -89 11 -4 81 -27 155 -51 74
-24 142 -47 150 -52 8 -4 49 -19 90 -33 197 -69 244 -86 293 -108 28 -13 104
-45 167 -72 308 -129 679 -316 1000 -504 80 -46 172 -99 205 -118 67 -38 105
-63 284 -180 163 -106 171 -112 270 -185 79 -60 173 -127 233 -166 14 -10 46
-34 70 -54 24 -20 72 -60 108 -88 36 -28 89 -72 118 -98 30 -26 72 -59 95 -74
23 -15 51 -35 62 -45 11 -10 91 -83 179 -162 87 -79 167 -151 176 -160 10 -9
28 -26 41 -38 13 -12 29 -26 34 -32 6 -6 80 -79 165 -163 86 -84 187 -189 225
-233 38 -44 85 -96 105 -116 19 -19 62 -66 95 -105 33 -38 75 -86 93 -106 19
-20 59 -70 90 -110 69 -90 124 -159 222 -281 41 -51 90 -113 108 -137 63 -87
333 -488 378 -563 16 -27 41 -67 56 -90 15 -23 36 -60 47 -82 11 -22 35 -62
53 -90 18 -27 39 -61 46 -75 7 -14 21 -40 32 -57 10 -18 33 -58 50 -90 17 -32
47 -85 66 -118 19 -33 60 -112 90 -175 31 -63 86 -178 124 -255 38 -77 79
-165 90 -195 12 -30 30 -71 40 -90 28 -56 90 -208 90 -222 0 -8 4 -18 9 -23
15 -16 94 -221 130 -335 28 -91 42 -132 52 -152 5 -10 9 -26 9 -36 0 -9 6 -26
14 -37 7 -11 21 -45 29 -75 9 -30 30 -102 47 -160 46 -151 43 -143 109 -400
55 -214 100 -421 131 -605 7 -38 20 -113 30 -165 10 -52 23 -131 30 -175 6
-44 15 -105 20 -135 5 -30 12 -93 16 -140 3 -47 12 -123 20 -169 8 -46 14
-125 14 -175 0 -50 7 -156 15 -236 17 -169 20 -807 5 -1020 -6 -74 -12 -178
-15 -230 -3 -52 -12 -151 -20 -220 -8 -69 -21 -188 -30 -265 -8 -77 -22 -180
-30 -230 -7 -49 -21 -137 -30 -195 -9 -58 -21 -123 -26 -145 -4 -22 -13 -76
-19 -120 -6 -44 -17 -111 -26 -150 -32 -147 -45 -203 -65 -285 -11 -47 -27
-110 -34 -140 -20 -86 -62 -239 -83 -305 -11 -33 -25 -80 -32 -105 -6 -25 -17
-61 -25 -80 -8 -19 -44 -129 -81 -245 -36 -115 -70 -219 -75 -230 -4 -11 -31
-76 -58 -145 -77 -195 -120 -300 -151 -365 -16 -33 -56 -118 -90 -190 -34 -71
-73 -155 -87 -185 -14 -30 -39 -80 -55 -110 -16 -30 -40 -77 -54 -105 -13 -27
-33 -63 -43 -80 -11 -16 -28 -46 -38 -65 -59 -109 -128 -227 -159 -271 -19
-28 -39 -61 -45 -75 -5 -14 -29 -57 -54 -95 -25 -38 -45 -72 -45 -75 0 -7 -89
-135 -111 -160 -11 -11 -19 -23 -19 -26 0 -4 -23 -39 -50 -80 -28 -40 -71
-104 -97 -143 -25 -38 -59 -85 -76 -104 -16 -19 -49 -64 -73 -100 -49 -75
-153 -210 -222 -290 -26 -29 -51 -61 -56 -70 -10 -17 -102 -129 -121 -146 -6
-5 -35 -39 -64 -75 -30 -36 -88 -103 -130 -149 -112 -124 -718 -729 -764 -762
-22 -16 -72 -59 -111 -96 -39 -38 -78 -72 -87 -78 -9 -5 -68 -51 -130 -102
-100 -81 -177 -140 -417 -321 -31 -23 -64 -45 -72 -49 -8 -3 -28 -17 -45 -30
-16 -12 -39 -30 -50 -38 -11 -8 -36 -27 -56 -42 -49 -37 -70 -51 -96 -66 -13
-7 -87 -54 -165 -105 -143 -93 -351 -217 -463 -277 -33 -17 -103 -54 -155 -82
-52 -28 -122 -65 -155 -83 -114 -61 -151 -80 -280 -141 -174 -82 -363 -161
-535 -223 -25 -9 -54 -20 -65 -25 -54 -26 -136 -61 -141 -61 -5 0 -57 -19
-159 -59 -11 -5 -65 -23 -120 -40 -55 -18 -109 -37 -120 -42 -11 -4 -40 -13
-65 -20 -44 -11 -63 -16 -210 -63 -119 -38 -200 -62 -265 -79 -33 -8 -80 -21
-104 -27 -24 -6 -65 -16 -90 -20 -25 -5 -75 -16 -111 -25 -65 -15 -93 -21
-350 -70 -598 -114 -897 -140 -1605 -140 -528 0 -960 21 -1220 60 -55 8 -134
19 -175 25 -77 11 -96 15 -280 49 -58 10 -148 27 -200 36 -52 9 -111 21 -130
26 -19 4 -71 16 -115 25 -44 8 -102 22 -130 29 -27 8 -79 21 -115 30 -84 21
-165 45 -325 95 -71 22 -134 40 -140 40 -27 0 -413 133 -550 189 -11 5 -78 32
-150 61 -138 55 -145 58 -270 114 -45 20 -84 36 -87 36 -22 0 -479 225 -634
311 -67 38 -125 69 -129 69 -3 0 -41 21 -85 48 -91 53 -113 66 -236 139 -49
29 -121 75 -160 102 -39 28 -111 75 -160 104 -123 74 -754 542 -754 559 0 4
-5 8 -11 8 -10 0 -82 62 -229 195 -31 27 -91 82 -135 120 -44 39 -108 97 -143
130 -96 91 -467 465 -499 504 -15 19 -62 71 -103 116 -130 140 -214 238 -339
395 -11 14 -44 54 -73 90 -49 60 -89 112 -234 310 -31 41 -63 88 -71 104 -8
15 -31 51 -51 79 -21 28 -50 72 -67 97 -16 26 -52 80 -79 121 -26 41 -67 103
-91 139 -23 36 -56 86 -73 112 -16 25 -33 56 -37 68 -6 20 -21 43 -87 143 -10
15 -37 63 -58 107 -22 43 -44 82 -50 85 -5 3 -10 13 -10 22 0 9 -6 24 -14 32
-14 16 -125 234 -189 371 -19 41 -63 134 -97 205 -80 170 -68 143 -155 360
-42 105 -108 282 -146 395 -37 113 -79 237 -93 275 -13 39 -34 104 -46 145
-12 41 -26 85 -31 98 -5 13 -9 32 -9 42 0 11 -6 34 -14 52 -13 29 -65 243
-112 458 -9 41 -25 109 -34 150 -10 41 -25 127 -34 190 -9 63 -23 153 -31 200
-39 226 -65 406 -74 515 -6 66 -15 144 -21 174 -5 30 -10 82 -10 116 0 35 -7
123 -16 197 -13 107 -17 231 -16 628 0 305 4 545 12 625 6 72 16 182 20 245
11 141 36 351 50 405 5 22 10 58 10 80 0 38 18 153 40 255 6 25 17 92 25 150
8 58 24 148 36 200 11 52 24 115 29 140 4 25 17 81 28 125 12 44 28 112 37
150 9 39 23 90 30 115 8 25 28 95 46 155 44 154 117 376 131 400 6 11 15 33
19 50 18 73 51 180 58 190 4 5 20 44 36 85 16 41 35 84 42 95 7 11 13 27 13
35 0 9 11 38 24 66 13 27 26 60 30 74 19 69 160 375 177 386 5 3 9 11 9 18 0
17 127 279 184 381 25 44 48 87 52 95 19 50 98 192 172 310 34 55 62 103 62
107 0 3 24 42 54 87 29 44 71 108 91 141 74 116 264 398 337 500 16 22 71 94
123 160 52 66 127 162 166 214 40 51 86 107 103 125 17 17 49 53 71 81 22 27
47 57 55 66 8 8 49 53 90 99 251 282 722 731 980 935 41 33 81 66 90 75 15 14
73 62 190 152 30 24 59 49 63 55 4 7 12 13 17 13 6 0 36 19 67 43 93 68 144
105 203 144 30 21 57 40 60 44 3 3 25 19 50 34 25 15 122 79 216 141 94 63
175 114 180 114 5 0 34 17 64 37 30 21 67 44 82 53 15 8 74 43 130 76 57 34
130 76 163 94 33 18 90 50 127 71 36 22 70 39 75 39 4 0 67 29 138 64 159 80
319 154 405 190 86 36 127 54 175 77 22 10 81 32 130 50 50 17 104 37 120 44
49 21 107 43 150 56 22 6 54 17 70 23 44 18 186 67 220 76 17 5 116 33 220 64
105 31 215 63 245 71 30 9 78 22 105 30 28 7 88 21 135 30 47 9 123 25 170 35
47 11 123 26 170 35 47 9 101 20 120 25 40 10 139 28 225 40 33 4 87 12 120
18 33 6 121 18 195 27 74 9 169 20 210 26 68 8 215 19 530 39 177 11 808 11
973 0z"/>
<path d="M9760 18597 c-3 -3 -73 -10 -156 -16 -174 -12 -492 -51 -729 -90 -33
-5 -80 -12 -105 -14 -54 -6 -339 -65 -351 -73 -5 -3 -30 -9 -57 -14 -55 -9
-258 -62 -352 -91 -36 -10 -87 -26 -115 -33 -80 -23 -278 -86 -300 -96 -11 -5
-65 -25 -120 -44 -205 -71 -353 -127 -465 -178 -25 -11 -54 -24 -65 -28 -11
-5 -65 -30 -120 -55 -55 -26 -117 -54 -139 -62 -21 -9 -73 -34 -115 -57 -42
-23 -96 -50 -121 -60 -25 -11 -50 -24 -56 -28 -7 -5 -47 -27 -90 -50 -44 -23
-97 -53 -118 -67 -49 -33 -44 -30 -151 -92 -49 -29 -133 -80 -185 -114 -52
-34 -112 -70 -133 -81 -21 -10 -55 -33 -75 -50 -31 -26 -88 -66 -247 -174 -12
-8 -35 -24 -51 -35 -62 -42 -214 -157 -219 -166 -4 -5 -59 -51 -123 -103 -64
-52 -142 -117 -172 -145 -30 -28 -57 -51 -61 -51 -24 0 -608 -593 -744 -755
-32 -38 -61 -72 -65 -75 -6 -4 -68 -74 -124 -140 -12 -14 -39 -50 -61 -80 -22
-30 -65 -86 -96 -125 -64 -80 -112 -147 -234 -325 -47 -69 -106 -154 -132
-190 -25 -36 -59 -90 -75 -120 -16 -30 -35 -61 -41 -69 -7 -7 -25 -38 -42 -67
-117 -208 -168 -300 -210 -379 -26 -49 -54 -97 -61 -106 -8 -8 -14 -20 -14
-26 0 -16 -60 -142 -71 -149 -5 -3 -9 -16 -9 -29 0 -13 -4 -26 -9 -29 -4 -3
-32 -59 -61 -123 -29 -65 -66 -146 -81 -181 -16 -35 -29 -66 -29 -69 0 -2 -13
-34 -30 -70 -16 -35 -30 -69 -30 -75 0 -5 -6 -22 -14 -36 -7 -15 -23 -54 -36
-87 -29 -80 -34 -93 -54 -138 -9 -21 -16 -46 -16 -55 0 -10 -14 -58 -31 -107
-17 -49 -37 -110 -44 -135 -7 -25 -33 -112 -58 -195 -25 -82 -59 -211 -77
-285 -17 -74 -37 -156 -45 -181 -8 -26 -15 -59 -15 -73 0 -15 -5 -37 -12 -49
-6 -12 -15 -44 -19 -72 -5 -27 -15 -88 -24 -135 -36 -191 -56 -334 -70 -495
-7 -93 -21 -233 -29 -310 -23 -210 -38 -591 -31 -760 10 -251 35 -646 45 -710
5 -33 12 -112 15 -175 4 -63 11 -135 16 -160 6 -24 17 -94 25 -155 34 -246 41
-280 94 -500 7 -27 16 -66 20 -85 58 -255 122 -487 206 -745 17 -55 41 -129
53 -165 21 -67 35 -106 71 -200 12 -30 26 -68 31 -85 5 -16 14 -41 20 -55 6
-14 17 -38 24 -55 18 -44 27 -65 100 -235 101 -232 184 -406 249 -520 14 -25
33 -59 41 -76 22 -49 184 -326 209 -359 13 -16 32 -50 43 -75 11 -25 45 -82
74 -127 30 -45 76 -117 103 -160 28 -43 66 -98 87 -123 20 -25 42 -55 48 -68
9 -17 19 -22 39 -20 25 3 27 7 43 98 9 52 24 129 33 170 17 75 17 75 -18 142
-19 36 -58 101 -85 143 -28 42 -51 79 -51 81 0 3 -8 17 -19 32 -49 71 -99 154
-135 222 -21 41 -46 86 -56 100 -58 85 -360 710 -360 744 0 7 -6 19 -14 25 -8
6 -16 22 -19 34 -5 21 -34 102 -107 297 -17 47 -36 99 -40 115 -12 41 -119
362 -135 405 -7 19 -18 53 -24 75 -5 22 -19 72 -30 110 -11 39 -32 122 -46
185 -14 63 -32 138 -40 165 -21 71 -65 327 -81 465 -3 25 -10 56 -14 70 -16
44 -65 457 -90 755 -19 222 -24 602 -11 816 20 339 30 461 45 579 37 286 46
348 55 395 26 128 41 215 46 270 4 33 13 85 21 115 7 30 27 114 44 185 18 72
35 144 40 160 5 17 25 89 46 160 20 72 47 159 59 195 12 36 29 90 39 120 41
128 100 288 145 392 12 26 21 54 21 62 0 8 6 30 14 48 8 18 30 69 49 113 19
44 40 96 48 114 21 53 174 362 222 449 23 42 51 97 61 122 11 25 45 87 75 138
31 52 67 112 80 135 13 23 40 67 60 97 19 30 41 66 48 80 7 14 33 52 58 85 25
33 52 75 60 93 39 83 377 540 529 714 23 25 50 58 61 73 11 14 31 38 45 54
244 271 551 577 775 770 176 152 421 351 431 351 3 0 30 19 59 43 92 71 167
126 235 169 36 22 79 50 95 61 88 62 188 127 193 127 4 0 33 18 65 40 31 22
59 40 62 40 2 0 29 16 60 35 30 20 87 52 127 72 40 20 90 47 111 60 21 13 98
53 170 89 73 36 141 70 152 77 80 44 319 157 332 157 9 0 102 39 218 90 53 24
106 44 170 65 39 13 129 44 200 68 254 86 414 133 590 172 61 13 171 38 245
55 74 17 155 35 180 40 25 5 79 16 120 24 41 9 125 23 185 32 61 9 137 20 170
25 33 5 179 20 325 34 232 21 319 24 700 24 239 0 487 -4 550 -9 381 -31 401
-33 715 -80 148 -22 400 -74 575 -119 63 -16 138 -33 165 -39 28 -6 75 -17
105 -25 30 -8 91 -25 135 -37 95 -26 556 -179 570 -189 6 -4 33 -16 60 -26 28
-10 94 -38 148 -61 53 -24 102 -44 108 -44 5 0 36 -12 67 -26 49 -22 367 -179
412 -203 24 -13 142 -74 185 -96 22 -11 42 -23 45 -26 3 -4 33 -20 66 -37 34
-17 126 -70 205 -118 79 -48 159 -96 177 -106 17 -11 32 -24 32 -28 0 -5 10
-12 22 -16 23 -7 43 -20 132 -86 28 -21 55 -38 59 -38 5 0 34 -20 65 -45 31
-24 73 -56 92 -70 43 -31 252 -196 300 -236 19 -16 67 -54 105 -85 91 -73 198
-169 494 -450 82 -78 227 -233 415 -443 64 -72 249 -298 336 -411 30 -40 61
-78 69 -87 8 -8 32 -41 55 -74 155 -226 227 -332 246 -367 8 -15 29 -47 46
-72 42 -62 162 -268 216 -370 25 -47 72 -134 105 -195 69 -127 75 -138 96
-185 40 -88 89 -193 131 -285 26 -54 56 -125 67 -157 10 -32 30 -83 44 -114
14 -31 25 -64 25 -74 0 -10 6 -23 14 -29 8 -6 16 -24 19 -39 5 -27 30 -99 46
-137 20 -44 61 -166 91 -270 17 -60 41 -139 52 -175 43 -139 138 -528 138
-567 0 -15 9 -64 19 -108 18 -75 55 -285 81 -455 7 -41 16 -120 20 -175 5 -55
13 -152 19 -215 29 -313 42 -594 37 -770 -10 -300 -27 -578 -42 -688 -8 -56
-14 -126 -14 -155 0 -29 -7 -88 -15 -132 -19 -107 -34 -197 -45 -270 -12 -86
-41 -238 -46 -246 -2 -4 -8 -40 -14 -80 -5 -41 -17 -101 -25 -134 -8 -33 -33
-136 -56 -230 -23 -93 -58 -226 -79 -295 -59 -195 -111 -353 -122 -374 -5 -10
-20 -50 -33 -90 -26 -80 -42 -121 -84 -218 -12 -26 -21 -53 -21 -60 0 -27 -99
-256 -201 -465 -38 -78 -69 -145 -69 -149 0 -4 -6 -15 -14 -23 -7 -9 -40 -68
-71 -131 -56 -110 -108 -205 -150 -275 -11 -18 -33 -56 -50 -84 -16 -29 -61
-101 -100 -160 -130 -199 -138 -213 -137 -257 0 -46 76 -281 97 -303 12 -12
17 -12 29 -1 9 7 16 17 16 23 0 5 15 28 33 51 18 23 46 62 63 88 16 27 54 83
85 125 49 69 139 209 139 218 0 2 17 30 38 62 21 32 54 87 72 123 19 36 39 71
44 79 13 16 132 236 147 271 6 14 48 101 94 195 84 171 133 278 185 412 16 39
33 80 38 90 6 10 17 36 25 58 9 22 36 92 61 156 25 64 46 123 46 132 0 9 11
45 24 79 32 84 75 217 96 298 10 36 24 88 33 115 27 89 48 168 68 250 11 44
24 96 29 115 14 53 54 233 94 425 21 103 43 246 56 365 6 58 19 179 30 270 59
515 64 1036 15 1605 -31 352 -94 817 -125 920 -5 17 -14 59 -19 95 -6 36 -16
85 -22 110 -6 25 -18 72 -26 105 -39 159 -45 183 -58 230 -26 92 -76 259 -112
370 -20 61 -47 144 -60 185 -38 118 -109 303 -158 415 -8 17 -17 41 -21 55
-18 65 -249 552 -318 670 -14 25 -35 63 -46 85 -11 22 -24 47 -30 55 -5 8 -42
73 -82 144 -40 70 -82 143 -93 161 -11 18 -41 68 -67 112 -25 43 -50 83 -55
88 -5 6 -37 51 -70 101 -34 50 -84 121 -112 158 -28 37 -51 69 -51 71 0 2 -22
35 -50 72 -27 37 -64 88 -82 113 -57 78 -223 282 -290 356 -36 39 -77 88 -93
108 -76 99 -680 706 -703 706 -4 0 -28 19 -52 43 -46 45 -201 178 -271 232
-61 48 -268 207 -318 245 -56 42 -151 108 -291 200 -58 38 -116 77 -130 87
-22 16 -230 143 -300 183 -14 8 -47 29 -75 46 -69 43 -173 101 -215 120 -19 8
-114 55 -210 103 -96 49 -209 103 -250 121 -41 17 -88 37 -105 45 -16 7 -55
23 -85 36 -30 12 -77 32 -105 45 -27 12 -81 32 -120 45 -38 12 -83 28 -100 35
-59 26 -161 63 -190 70 -16 4 -34 10 -40 14 -9 7 -165 57 -245 80 -19 5 -73
21 -120 35 -169 51 -286 82 -390 105 -47 10 -116 26 -155 35 -99 22 -256 51
-355 65 -125 18 -252 37 -365 54 -250 38 -454 49 -970 53 -281 3 -512 2 -515
0z"/>
<path d="M11022 16722 c-55 -14 -69 -23 -115 -72 -28 -32 -63 -73 -77 -94 -51
-75 -245 -263 -331 -322 -144 -100 -440 -219 -605 -244 -203 -31 -244 -30
-244 5 0 8 11 38 24 67 40 87 56 157 56 240 0 96 -22 165 -79 245 -66 94 -151
149 -266 172 -50 10 -71 10 -129 -4 -77 -18 -109 -32 -177 -78 -42 -28 -57
-46 -96 -110 -6 -11 -16 -23 -22 -26 -15 -10 -40 -108 -47 -189 -5 -50 -2 -77
10 -106 9 -21 16 -48 16 -59 0 -11 17 -54 37 -95 38 -74 38 -74 14 -93 -13
-10 -35 -19 -50 -19 -41 -1 -182 -54 -284 -107 -240 -127 -424 -275 -537 -434
-55 -77 -140 -218 -140 -233 0 -6 -11 -32 -24 -57 -32 -60 -76 -217 -100 -357
-21 -120 -26 -123 -100 -59 -33 29 -72 58 -86 65 -14 7 -38 21 -55 31 -31 20
-157 51 -280 70 -38 6 -101 20 -140 31 -38 12 -88 26 -110 33 -22 6 -94 37
-160 67 -66 31 -156 69 -200 84 -44 15 -89 32 -100 36 -11 5 -65 18 -120 30
-55 12 -108 26 -117 31 -10 5 -25 9 -33 9 -10 0 -13 5 -9 11 5 8 38 10 108 6
263 -15 496 -48 648 -93 26 -8 59 -14 73 -14 15 0 51 -7 82 -16 123 -36 394 4
558 81 82 39 157 119 184 197 37 108 43 140 39 233 -4 80 -8 97 -38 150 -19
33 -47 76 -64 95 -37 43 -114 105 -141 113 -11 3 -40 13 -65 22 -116 43 -280
-12 -386 -128 -30 -33 -54 -67 -54 -74 0 -8 -8 -28 -17 -46 -23 -43 -34 -141
-22 -202 10 -56 68 -184 104 -231 13 -17 21 -34 18 -38 -14 -14 -124 -4 -208
19 -49 14 -133 34 -185 45 -52 10 -138 28 -190 39 -215 46 -438 37 -587 -23
-98 -41 -134 -70 -170 -140 -19 -38 -24 -59 -20 -89 11 -83 84 -117 250 -117
162 0 392 -51 542 -120 170 -77 201 -92 219 -102 25 -13 138 -48 191 -58 22
-4 60 -12 85 -18 25 -6 77 -16 115 -23 63 -10 153 -41 180 -61 99 -74 169
-169 231 -314 26 -60 62 -137 80 -171 19 -33 34 -75 34 -91 0 -17 -35 -105
-79 -199 -49 -104 -87 -200 -99 -253 -56 -233 -55 -220 -50 -438 3 -114 10
-218 16 -232 5 -14 18 -52 27 -85 28 -103 70 -199 126 -291 20 -33 40 -70 43
-82 4 -12 11 -22 15 -22 4 0 38 -45 76 -100 37 -55 72 -103 76 -106 5 -3 9
-12 9 -21 0 -13 -8 -14 -46 -8 -243 36 -534 190 -622 329 -41 65 -71 163 -83
275 -6 57 -19 128 -30 158 -20 60 -73 138 -120 177 -16 14 -29 32 -29 41 0 10
13 57 30 106 29 87 30 96 39 322 1 13 10 17 46 17 52 0 153 36 243 86 52 30
71 48 106 102 24 37 53 96 65 131 19 55 21 76 15 144 -6 65 -12 86 -38 124
-17 25 -50 59 -73 76 -42 30 -46 31 -190 37 -182 8 -196 13 -364 141 -67 51
-97 65 -215 100 -49 15 -124 10 -193 -11 -130 -41 -191 -102 -234 -233 -40
-122 -39 -212 2 -330 16 -48 40 -102 53 -120 26 -38 86 -97 98 -97 4 0 11 -7
14 -16 4 -9 -10 -32 -38 -62 -40 -44 -55 -66 -98 -146 -9 -17 -29 -84 -45
-148 -17 -74 -34 -120 -43 -123 -25 -10 -266 -6 -317 5 -81 18 -175 52 -226
82 -26 15 -51 28 -54 28 -3 0 -28 21 -55 48 -58 55 -90 114 -108 195 -11 47
-11 67 0 114 8 31 23 68 35 81 20 23 23 24 88 14 89 -14 162 4 233 58 73 55
147 164 186 270 20 56 23 83 22 195 0 122 -2 133 -28 184 -101 197 -324 272
-518 175 -37 -19 -82 -47 -101 -64 -46 -40 -100 -147 -122 -240 -9 -41 -26
-91 -36 -111 -19 -38 -106 -114 -215 -187 -35 -23 -114 -93 -176 -155 -105
-104 -155 -167 -244 -306 -46 -71 -154 -281 -154 -298 0 -8 -6 -24 -14 -36 -8
-12 -24 -51 -36 -87 -11 -36 -25 -74 -30 -85 -9 -21 -35 -133 -44 -195 -35
-217 -45 -439 -26 -553 5 -32 14 -104 20 -160 12 -111 26 -167 72 -297 42
-119 158 -355 206 -420 22 -30 53 -72 69 -93 44 -60 174 -207 218 -248 84 -77
128 -109 165 -120 36 -11 43 -10 80 15 25 16 40 34 40 47 0 20 -100 149 -178
229 -66 68 -90 122 -134 300 -21 86 -23 117 -23 340 1 271 5 299 70 435 24 49
56 94 112 151 75 77 283 244 304 244 6 0 38 -16 71 -35 132 -78 263 -113 451
-122 103 -5 263 14 370 44 71 20 90 12 98 -43 6 -47 61 -197 99 -275 57 -116
158 -254 252 -345 110 -106 195 -158 383 -234 96 -39 221 -80 242 -80 25 0
106 -17 233 -50 41 -11 140 -35 219 -54 246 -61 296 -78 434 -148 91 -46 239
-141 307 -198 59 -49 188 -198 215 -248 12 -20 37 -62 56 -92 54 -85 179 -332
179 -355 0 -7 9 -20 20 -30 11 -10 20 -22 20 -28 0 -10 65 -139 113 -227 14
-25 37 -66 50 -92 14 -26 52 -82 84 -125 32 -43 62 -85 68 -94 5 -10 27 -41
47 -71 21 -31 38 -60 38 -65 0 -6 7 -16 15 -23 8 -7 15 -19 15 -28 0 -8 7 -24
17 -34 20 -22 15 -34 -61 -152 -58 -88 -199 -241 -214 -232 -5 3 -12 38 -15
78 -11 118 -56 217 -148 320 -56 61 -111 104 -164 126 -51 21 -53 27 -101 272
-8 41 -21 111 -29 155 -7 44 -21 119 -29 166 -37 211 -95 348 -203 483 -166
206 -367 335 -660 424 -54 17 -111 33 -128 35 -16 3 -61 11 -100 17 -97 17
-283 7 -357 -18 -62 -22 -188 -87 -237 -121 -39 -28 -128 -138 -170 -209 -44
-76 -68 -154 -76 -252 -13 -172 30 -304 134 -407 89 -87 196 -128 336 -128 68
1 91 6 154 34 137 61 170 113 176 271 3 76 7 96 19 98 22 5 66 -32 94 -79 21
-35 24 -50 21 -118 -3 -64 -10 -88 -37 -142 -57 -109 -142 -171 -287 -210 -85
-23 -265 -25 -342 -5 -68 18 -158 61 -210 101 -55 42 -223 231 -223 251 0 4
-6 15 -14 23 -8 9 -37 63 -66 121 -29 58 -56 112 -60 121 -24 48 -96 286 -110
364 -4 28 -22 95 -40 150 -66 213 -66 215 -2 215 26 0 43 9 72 38 47 47 57 99
43 227 -7 68 -17 107 -41 156 -18 36 -32 70 -32 75 0 5 -24 39 -54 75 -37 47
-60 88 -77 139 -19 59 -33 81 -78 126 -30 30 -68 58 -85 63 -17 6 -51 17 -76
26 -70 26 -199 17 -272 -19 -31 -15 -76 -47 -101 -71 -48 -48 -118 -180 -114
-216 1 -16 -4 -24 -16 -27 -13 -3 -51 29 -120 99 -165 165 -226 192 -292 126
-41 -41 -69 -149 -55 -212 5 -22 10 -53 10 -68 0 -16 11 -53 25 -83 14 -30 25
-61 25 -68 0 -7 6 -19 14 -25 7 -6 30 -38 50 -70 23 -36 75 -91 139 -147 124
-109 234 -197 265 -213 12 -6 22 -16 22 -22 0 -5 10 -23 21 -38 20 -27 21 -38
16 -158 -4 -93 -11 -146 -26 -192 -19 -57 -32 -74 -117 -158 -52 -51 -101 -93
-107 -93 -7 0 -34 -12 -62 -25 -27 -14 -57 -25 -66 -25 -9 0 -29 -6 -45 -14
-49 -24 -173 -39 -259 -32 -45 3 -124 19 -176 34 -117 36 -249 98 -249 117 0
7 9 20 20 28 41 29 96 121 114 193 20 80 18 216 -4 274 -33 88 -65 145 -105
185 -71 72 -157 109 -283 120 -127 11 -245 -36 -334 -135 -133 -146 -132 -337
3 -538 27 -41 49 -85 49 -99 0 -16 -21 -48 -60 -92 -33 -37 -60 -75 -60 -84 0
-9 -4 -18 -9 -21 -12 -8 -47 -127 -65 -222 -11 -55 -16 -140 -16 -264 0 -173
7 -250 42 -435 6 -33 14 -78 18 -100 25 -131 77 -298 136 -433 8 -18 14 -39
14 -48 0 -36 166 -338 197 -357 7 -4 13 -13 13 -19 0 -18 108 -148 184 -222
164 -159 234 -209 396 -288 137 -66 298 -114 435 -129 55 -5 138 -15 185 -20
191 -21 330 -21 450 -1 112 19 140 19 140 1 0 -18 -163 -191 -240 -255 -43
-36 -81 -73 -84 -82 -4 -9 -13 -28 -21 -42 -21 -36 -19 -106 3 -128 38 -38
115 -66 190 -70 92 -5 172 10 270 52 120 51 176 93 331 251 99 101 131 136
301 330 108 123 123 139 170 180 88 75 178 136 272 183 190 93 276 112 506
112 343 0 521 -64 787 -281 115 -94 263 -258 306 -339 13 -25 44 -77 67 -115
24 -39 64 -106 90 -150 52 -88 83 -111 136 -101 48 9 69 29 69 64 0 37 -118
275 -192 386 -14 21 -30 46 -36 55 -53 86 -169 224 -246 293 -79 71 -171 137
-339 243 -46 29 -236 138 -275 157 -176 88 -278 158 -325 224 -14 19 -46 62
-72 95 -74 93 -61 116 31 54 46 -31 176 -97 302 -154 72 -33 264 -97 364 -122
73 -18 119 -23 245 -23 173 -1 195 5 225 65 13 24 14 37 6 60 -18 53 -50 87
-107 116 -123 62 -198 184 -197 321 0 87 21 142 75 194 61 59 114 68 222 40
53 -14 88 -52 136 -143 40 -77 40 -77 40 -234 0 -157 0 -157 38 -195 29 -30
49 -40 87 -46 43 -6 56 -3 103 22 60 33 234 206 337 337 85 109 93 117 108
117 21 0 117 -98 117 -119 0 -11 -35 -55 -77 -98 -183 -187 -309 -321 -344
-370 -87 -116 -154 -267 -165 -366 -4 -34 -10 -69 -15 -79 -16 -30 -12 -268 6
-373 17 -105 41 -174 90 -264 17 -29 38 -69 48 -89 21 -40 82 -125 142 -197
50 -60 134 -170 156 -205 9 -14 32 -42 50 -62 19 -21 62 -76 97 -123 35 -47
74 -92 87 -101 19 -12 59 -16 192 -17 93 0 174 3 181 7 13 7 39 54 80 141 11
22 30 54 44 70 32 39 176 316 220 425 50 122 60 150 67 194 9 59 28 56 41 -8
16 -76 8 -343 -13 -421 -8 -33 -20 -80 -27 -105 -6 -25 -15 -54 -20 -65 -5
-11 -11 -29 -14 -40 -2 -11 -16 -51 -30 -90 -39 -107 -40 -105 57 -105 67 0
87 3 99 18 23 26 97 270 138 454 17 75 8 278 -20 463 -25 164 -23 319 5 400
48 138 70 170 221 320 80 80 149 145 152 145 4 0 26 18 49 41 61 59 84 128 89
266 6 159 26 246 70 300 53 65 131 98 219 94 53 -2 92 -18 135 -55 60 -50 71
-78 72 -176 2 -78 -1 -94 -28 -146 -25 -51 -72 -104 -169 -192 -32 -29 -106
-86 -157 -120 -113 -77 -206 -195 -264 -336 -67 -161 -94 -396 -75 -669 12
-182 13 -379 2 -507 -7 -78 -16 -125 -43 -221 -6 -20 -7 -46 -3 -58 6 -18 14
-21 70 -21 76 0 81 6 114 130 48 176 54 196 73 255 23 69 35 99 54 137 8 14
14 31 14 37 0 10 90 196 153 317 18 33 49 84 70 113 47 64 195 219 222 232 11
5 40 25 65 44 134 103 333 207 459 240 83 21 301 29 467 17 145 -11 270 -38
337 -73 21 -10 43 -19 50 -19 22 0 147 -101 236 -190 87 -87 238 -249 327
-350 27 -30 81 -88 121 -128 40 -40 73 -77 73 -81 0 -15 219 -153 291 -183 56
-23 91 -31 141 -32 37 0 72 4 78 10 6 6 13 27 17 48 5 31 2 41 -22 67 -16 16
-35 29 -42 29 -14 0 -100 39 -158 72 -98 56 -377 323 -468 447 -22 31 -49 64
-59 75 -14 13 -17 21 -9 29 8 8 20 7 44 -5 17 -9 60 -26 95 -37 34 -12 70 -25
80 -31 24 -13 244 -87 317 -106 155 -41 324 -57 550 -50 225 6 309 19 514 83
93 29 260 112 343 169 194 135 348 301 483 524 22 36 46 76 52 90 7 14 17 32
22 40 18 29 101 226 101 241 0 8 14 50 30 94 57 148 91 258 135 435 48 190 63
289 72 473 8 168 -16 312 -82 496 -24 66 -73 169 -85 176 -18 11 -11 67 14 99
53 70 96 211 96 314 0 31 -8 82 -18 112 -51 154 -138 233 -306 277 -56 15 -74
16 -136 5 -64 -11 -150 -45 -187 -75 -74 -59 -141 -166 -178 -286 -21 -65 -15
-156 15 -245 19 -57 75 -156 89 -156 3 -1 21 -14 40 -30 35 -29 35 -29 -5 -68
-57 -56 -123 -106 -174 -132 -25 -12 -53 -27 -64 -32 -43 -22 -168 -58 -259
-73 -74 -13 -132 -16 -235 -13 -144 6 -172 11 -172 35 0 18 94 146 151 203
105 106 299 312 360 381 72 80 211 283 252 364 13 28 37 75 53 105 43 84 73
162 99 255 9 33 21 70 26 83 5 12 18 73 30 135 31 160 39 556 14 711 -24 158
-78 357 -121 453 -13 28 -24 54 -24 57 0 3 -16 40 -36 83 -32 68 -70 132 -140
237 -10 16 -23 36 -29 45 -21 33 -146 178 -192 222 -101 97 -302 248 -390 292
-40 21 -99 93 -109 132 -17 72 -63 203 -84 240 -46 79 -112 147 -170 174 -49
23 -67 26 -165 26 -95 0 -117 -3 -157 -23 -135 -66 -224 -173 -258 -309 -12
-45 -11 -63 4 -135 34 -164 108 -341 147 -353 10 -4 19 -12 19 -19 0 -17 103
-64 163 -75 26 -5 83 -6 128 -4 93 6 120 -6 145 -65 22 -53 29 -167 14 -248
-12 -72 -79 -221 -112 -250 -10 -10 -18 -22 -18 -27 0 -14 -93 -103 -166 -159
-69 -53 -142 -91 -228 -120 -52 -18 -85 -21 -221 -21 -155 0 -266 15 -395 53
-27 8 -44 6 -76 -6 -37 -14 -42 -20 -48 -54 -8 -50 -3 -61 45 -99 53 -43 106
-61 224 -75 100 -11 100 -11 125 -57 40 -72 81 -114 145 -148 59 -30 63 -31
199 -31 239 0 402 51 612 190 76 50 81 52 134 47 30 -3 74 -15 97 -28 53 -28
143 -106 143 -124 0 -7 -13 -18 -28 -23 -27 -9 -102 -89 -102 -107 0 -5 -21
-54 -47 -109 -91 -196 -296 -537 -313 -520 -4 5 -10 50 -12 99 -4 69 -11 104
-32 149 -30 68 -94 156 -113 156 -6 0 -16 6 -20 14 -4 7 -35 26 -68 42 -53 25
-71 28 -160 29 -87 0 -106 -3 -145 -24 -98 -52 -124 -76 -164 -156 -36 -70
-40 -87 -44 -168 -5 -91 8 -176 36 -231 12 -24 12 -30 0 -37 -7 -5 -20 -6 -28
-3 -8 4 -49 19 -90 33 -87 32 -216 95 -245 120 -41 35 -119 81 -149 86 -17 4
-56 5 -86 3 -49 -3 -56 -6 -78 -38 -21 -30 -23 -43 -19 -98 6 -85 78 -227 156
-308 52 -54 174 -148 211 -162 8 -3 47 -24 85 -47 39 -22 96 -54 129 -70 32
-17 74 -44 93 -62 33 -30 34 -34 27 -80 -11 -79 -44 -130 -135 -209 -29 -26
-159 -100 -191 -109 -13 -4 -50 -22 -83 -40 -33 -18 -91 -50 -130 -70 -62 -34
-131 -80 -175 -117 -75 -65 -201 -158 -213 -158 -5 0 -46 -18 -91 -40 -95 -46
-155 -65 -276 -86 -90 -16 -126 -15 -418 6 -149 11 -203 11 -283 1 -199 -24
-363 -108 -564 -285 -53 -48 -68 -57 -76 -45 -13 21 -11 53 11 154 34 163 71
234 183 347 63 64 123 103 217 140 85 34 267 22 430 -26 25 -8 81 -21 125 -31
44 -9 112 -24 150 -33 49 -11 119 -16 235 -17 163 0 166 0 260 34 133 47 292
134 395 216 48 38 93 62 200 104 44 18 88 40 97 48 23 21 23 65 -1 94 -52 65
-274 -12 -472 -163 -20 -16 -40 -28 -44 -28 -5 0 -43 -20 -85 -45 -43 -25
-114 -59 -159 -75 -70 -26 -95 -30 -179 -30 -65 1 -105 5 -122 15 -14 8 -37
14 -51 15 -15 0 -31 6 -38 13 -17 21 7 37 53 37 52 0 118 21 180 56 59 33 129
125 168 221 24 60 27 81 28 182 0 107 -2 117 -31 175 -41 81 -101 158 -147
188 -43 29 -146 63 -215 72 -69 8 -143 -8 -234 -51 -61 -30 -182 -170 -183
-213 0 -8 -7 -28 -15 -44 -8 -15 -15 -39 -15 -52 0 -41 -39 -128 -69 -157 -17
-15 -53 -35 -81 -43 -41 -12 -61 -13 -109 -3 -67 13 -66 12 -109 62 -29 35
-32 43 -32 107 0 76 36 205 70 252 11 15 20 32 20 37 0 18 115 140 185 195 74
60 223 137 319 166 104 32 306 73 436 90 47 6 99 15 115 20 45 13 138 31 365
69 89 16 202 52 258 83 203 114 283 348 165 479 -31 34 -115 99 -128 99 -3 0
-27 16 -54 35 -26 19 -52 35 -57 35 -22 1 -100 143 -105 190 -4 43 13 133 32
171 20 41 79 96 117 110 20 8 47 3 121 -20 153 -48 249 -63 431 -64 138 -2
175 1 225 17 100 32 165 109 165 196 0 55 -23 101 -69 138 -38 30 -38 30 -202
36 -230 7 -249 9 -249 26 0 5 24 33 53 62 29 29 66 80 82 113 27 56 29 68 30
180 0 108 -2 125 -25 169 -30 58 -101 125 -167 156 -42 20 -59 22 -136 17 -69
-3 -95 -9 -118 -26 -15 -11 -35 -21 -42 -21 -8 0 -42 -26 -75 -58 -41 -39 -71
-81 -93 -126 -17 -36 -36 -69 -42 -73 -6 -4 -68 -14 -139 -24 -115 -16 -323
-74 -353 -99 -5 -4 -46 -27 -91 -50 -44 -23 -98 -57 -119 -75 -21 -19 -41 -36
-44 -37 -14 -7 -150 -165 -165 -193 -9 -16 -28 -48 -41 -70 -86 -140 -154
-319 -195 -515 -29 -138 -97 -301 -157 -375 -30 -37 -86 -80 -178 -137 -38
-23 -85 -53 -104 -65 -18 -13 -38 -20 -43 -16 -18 10 0 143 42 306 21 85 43
163 48 173 6 11 18 42 28 69 25 73 128 280 177 356 37 58 101 144 117 159 3 3
23 29 44 57 20 29 87 110 148 180 111 128 119 140 192 249 90 136 160 298 172
401 3 26 12 68 19 93 7 25 16 62 20 83 11 66 30 72 255 73 149 0 214 4 275 18
151 34 250 69 395 138 160 77 351 138 515 164 114 18 193 37 227 54 40 21 78
63 78 86 0 51 -87 164 -126 164 -13 0 -25 4 -29 9 -3 5 -38 20 -78 33 -62 20
-92 23 -213 23 -77 0 -158 -6 -180 -12 -70 -20 -267 -54 -514 -89 -194 -27
-252 -28 -357 -9 -97 19 -163 39 -163 52 0 4 30 36 66 72 98 96 144 204 144
338 0 72 -4 92 -31 149 -17 36 -46 82 -63 102 -41 47 -120 96 -178 110 -60 15
-195 15 -256 1 -157 -38 -295 -270 -277 -466 7 -73 7 -73 -19 -73 -14 0 -41
10 -60 23 -83 54 -154 96 -196 117 -86 43 -242 180 -311 274 -24 33 -56 75
-71 95 -31 40 -41 56 -107 156 -51 77 -50 76 -105 171 -21 36 -52 87 -69 111
-16 25 -37 63 -46 86 -42 106 -91 169 -130 166 -9 -1 -44 -8 -79 -17z m-1631
-194 c57 -16 114 -70 136 -126 23 -60 23 -177 -1 -253 -10 -33 -33 -73 -54
-96 -66 -72 -82 -100 -82 -140 0 -69 46 -106 152 -122 70 -12 298 4 416 29
351 71 713 270 888 488 23 29 54 43 54 25 0 -25 -107 -212 -151 -265 -60 -73
-103 -110 -214 -182 -118 -75 -114 -74 -188 -110 -37 -19 -73 -39 -80 -44 -7
-5 -37 -19 -67 -30 -61 -23 -356 -157 -380 -172 -8 -6 -24 -14 -35 -19 -23
-10 -118 -67 -159 -96 -53 -37 -175 -163 -198 -206 -13 -23 -28 -49 -33 -58
-6 -9 -22 -34 -36 -56 -33 -52 -119 -233 -119 -250 0 -8 -20 -74 -44 -147 -87
-263 -100 -331 -102 -528 -1 -115 -8 -194 -28 -305 -37 -217 -41 -233 -103
-429 -26 -81 -109 -236 -192 -360 -25 -38 -51 -76 -56 -85 -6 -9 -31 -48 -57
-87 -69 -105 -143 -257 -171 -354 -27 -91 -55 -209 -59 -250 -5 -41 -22 -29
-36 25 -60 234 -56 377 16 570 16 44 73 169 126 279 126 258 155 348 175 531
19 169 11 307 -31 590 -18 120 -15 492 5 585 8 41 18 93 22 115 8 50 21 91 57
182 37 95 37 150 0 186 -15 15 -38 27 -51 27 -27 0 -74 -24 -122 -61 -20 -16
-42 -29 -48 -29 -7 0 -52 -40 -100 -90 -124 -126 -177 -209 -251 -392 -49
-121 -73 -215 -100 -398 -35 -229 -46 -226 -62 13 -14 225 2 386 52 522 25 69
54 124 165 314 21 35 252 258 308 296 68 47 201 122 231 131 12 4 44 17 71 29
28 12 91 39 140 60 164 69 183 81 194 122 22 77 14 125 -36 229 -44 90 -48
104 -48 174 0 68 3 82 30 126 54 86 155 123 256 92z m1860 -375 c150 -224 364
-472 458 -531 14 -9 44 -31 67 -49 23 -18 44 -33 48 -33 3 0 28 -15 54 -32
142 -96 307 -168 386 -168 59 0 124 29 146 64 19 32 19 37 5 137 -11 84 -12
117 -2 174 11 64 16 75 62 122 55 56 111 79 176 70 64 -8 103 -34 143 -95 35
-53 37 -61 32 -113 -9 -92 -45 -155 -132 -229 -42 -36 -83 -78 -91 -94 -19
-36 -12 -99 14 -135 31 -40 122 -98 198 -125 123 -43 351 -66 465 -47 36 6 97
15 135 20 39 5 81 14 95 19 14 5 81 17 150 26 69 10 139 21 155 26 49 15 215
24 215 13 0 -6 -39 -23 -87 -37 -125 -38 -285 -102 -378 -151 -197 -102 -353
-134 -656 -135 -185 0 -185 0 -230 -28 -24 -16 -52 -38 -61 -48 -26 -30 -58
-113 -73 -189 -21 -105 -41 -185 -59 -235 -30 -80 -105 -224 -133 -255 -15
-17 -55 -66 -88 -109 -32 -43 -69 -91 -81 -105 -186 -222 -251 -306 -329 -426
-32 -49 -68 -106 -81 -125 -33 -50 -92 -180 -119 -263 -12 -39 -27 -73 -32
-74 -4 -2 -16 34 -26 79 -34 154 -98 294 -214 473 -18 27 -33 55 -33 62 0 7
31 21 69 33 133 39 212 82 274 150 32 34 68 83 81 108 13 26 51 135 85 242 34
107 66 199 70 205 5 5 11 21 14 35 3 14 15 59 27 100 30 105 40 372 16 453 -9
30 -16 63 -16 72 0 27 -46 127 -105 228 -29 52 -88 117 -232 260 -232 230
-304 329 -371 507 -39 106 -62 200 -47 200 2 0 18 -21 36 -47z m-214 -58 c8
-22 19 -56 24 -75 11 -38 15 -48 53 -130 55 -118 134 -244 216 -345 58 -70
236 -245 250 -245 12 0 125 -141 159 -198 16 -28 35 -70 41 -94 6 -24 19 -69
27 -100 12 -43 15 -87 11 -183 -3 -75 -10 -131 -16 -137 -7 -7 -12 -25 -12
-41 0 -33 -28 -138 -41 -151 -4 -5 -24 5 -46 24 -20 18 -62 45 -93 59 -50 23
-67 26 -175 26 -99 0 -131 -4 -185 -23 -114 -40 -202 -103 -287 -206 -20 -24
-37 -37 -49 -34 -12 2 -32 29 -51 67 -26 50 -33 77 -33 121 0 34 5 62 13 68 6
5 32 13 57 17 90 15 425 165 494 222 57 47 113 155 135 262 10 46 9 59 -6 90
-11 21 -33 44 -55 56 -34 18 -41 18 -100 6 -35 -7 -95 -28 -134 -47 -39 -19
-77 -34 -84 -34 -7 0 -27 -9 -45 -20 -57 -35 -62 -25 -62 114 1 117 -1 127
-29 182 -34 70 -91 129 -157 166 -38 22 -68 29 -137 34 -77 6 -99 4 -162 -16
-62 -19 -82 -32 -129 -79 -59 -60 -109 -151 -109 -198 0 -15 5 -63 12 -107 12
-79 12 -79 -16 -102 -15 -13 -36 -24 -47 -24 -11 0 -46 -13 -78 -30 -158 -79
-226 -154 -282 -310 -18 -52 -36 -205 -42 -370 -2 -59 -4 -65 -22 -62 -11 2
-27 11 -35 21 -8 10 -42 35 -75 56 -33 22 -101 80 -151 130 -83 82 -94 96
-113 157 -35 112 -24 238 31 363 45 101 118 201 195 266 53 45 205 130 301
169 96 38 407 190 452 220 14 9 61 36 105 58 108 57 246 162 292 225 69 93
133 187 133 195 0 12 23 33 33 29 5 -1 16 -21 24 -42z m-3314 -319 c46 -20 95
-69 117 -118 38 -83 17 -223 -41 -281 -15 -16 -51 -37 -79 -47 -46 -17 -55
-17 -91 -4 -89 31 -154 108 -179 210 -11 44 -11 57 5 104 20 59 83 136 118
143 49 9 120 6 150 -7z m3069 -439 c49 -37 67 -78 67 -152 1 -58 -22 -140 -45
-166 -9 -10 -35 -25 -58 -34 -40 -15 -45 -15 -97 5 -67 27 -93 50 -126 115
-21 42 -24 60 -20 107 9 97 77 157 179 158 49 0 62 -5 100 -33z m-2313 -413
c-26 -127 -15 -427 26 -674 20 -117 35 -288 35 -389 0 -122 -36 -321 -70 -391
-10 -19 -25 -60 -35 -90 -10 -30 -36 -89 -58 -130 -59 -109 -130 -250 -144
-285 -47 -122 -69 -274 -58 -408 4 -51 8 -105 9 -122 2 -44 -25 -38 -47 9 -11
22 -34 60 -53 84 -19 25 -34 49 -34 54 0 5 -7 25 -17 46 -80 180 -143 420
-143 548 0 65 12 160 35 274 28 139 30 143 237 555 58 114 75 156 88 215 4 19
12 55 18 80 6 25 18 92 27 150 34 231 47 279 108 428 55 134 101 161 76 46z
m2841 9 c-1 -15 -55 -70 -95 -95 -80 -52 -307 -153 -385 -172 -14 -3 -48 -19
-76 -35 -71 -41 -88 -79 -85 -196 2 -90 18 -162 59 -257 37 -83 114 -211 169
-278 29 -36 58 -70 63 -77 6 -7 10 -19 10 -28 0 -16 -15 -20 -24 -6 -3 5 -34
23 -68 41 -176 90 -360 239 -442 357 -20 29 -36 56 -36 59 0 4 -13 28 -28 53
-37 60 -83 207 -89 285 -4 39 0 84 11 124 9 35 16 72 16 81 0 27 82 111 109
111 12 0 49 -18 83 -40 78 -51 145 -65 268 -56 95 7 131 13 225 36 68 16 201
60 250 81 44 19 65 23 65 12z m3257 -202 c35 -5 76 -19 92 -30 37 -27 111
-138 111 -168 0 -46 58 -202 89 -242 18 -22 83 -78 144 -125 121 -91 139 -115
172 -230 12 -42 16 -90 14 -174 -3 -122 -4 -129 -52 -257 -60 -163 -101 -230
-196 -324 -143 -141 -263 -217 -433 -271 -116 -37 -134 -40 -238 -40 -105 0
-150 9 -150 30 0 5 17 12 38 15 116 19 232 68 360 154 150 101 288 261 347
405 48 117 65 199 65 322 0 84 -4 113 -25 168 -30 80 -61 130 -109 176 -36 34
-36 34 -161 32 -156 -3 -187 8 -232 79 -49 76 -66 133 -71 240 -5 107 3 132
60 186 33 32 84 63 103 63 6 0 38 -4 72 -9z m-4477 -231 c11 -41 26 -93 34
-115 20 -54 113 -220 156 -279 63 -87 175 -210 236 -260 94 -77 177 -136 191
-136 7 0 54 -21 105 -47 107 -53 124 -61 233 -103 44 -17 91 -41 105 -53 25
-22 110 -141 110 -154 0 -4 6 -14 14 -22 31 -37 95 -184 124 -286 25 -90 37
-146 57 -275 28 -176 12 -504 -34 -705 -40 -178 -77 -277 -183 -487 -21 -42
-38 -81 -38 -87 0 -7 -8 -24 -19 -39 -10 -15 -30 -47 -45 -72 -23 -39 -81
-125 -104 -155 -4 -5 -18 -26 -32 -45 -13 -19 -53 -70 -87 -113 -35 -43 -87
-113 -115 -155 -58 -88 -158 -278 -158 -302 0 -8 -6 -24 -14 -35 -7 -11 -16
-31 -19 -45 -3 -14 -15 -61 -27 -105 -41 -156 -61 -310 -59 -466 1 -80 8 -175
15 -210 16 -77 17 -89 4 -109 -8 -13 -14 -10 -39 15 -17 17 -48 46 -71 65 -22
19 -59 52 -82 74 -24 21 -76 66 -118 101 -121 101 -214 214 -297 360 -41 74
-99 199 -127 275 -56 153 -65 164 -144 153 -35 -5 -42 -10 -47 -35 -15 -64 24
-210 94 -358 29 -62 45 -90 118 -212 49 -82 220 -280 298 -345 39 -32 113 -92
165 -134 52 -42 118 -98 145 -125 28 -27 68 -63 90 -79 146 -105 273 -233 317
-320 12 -22 38 -63 59 -92 44 -59 50 -97 18 -113 -38 -21 -94 -86 -134 -158
-22 -40 -44 -72 -48 -72 -4 0 -15 17 -23 38 -8 20 -21 50 -29 65 -8 16 -15 33
-15 39 0 21 -120 195 -213 309 -15 19 -46 57 -69 84 -22 28 -175 187 -338 355
-164 168 -325 334 -358 370 -91 98 -182 227 -303 430 -136 227 -160 288 -199
510 -31 170 -24 302 25 495 28 108 50 162 97 240 68 110 84 132 132 180 53 52
182 135 211 135 22 0 29 -24 16 -62 -5 -18 -15 -96 -21 -174 -12 -156 -1 -352
24 -445 38 -138 52 -182 75 -234 37 -82 152 -314 189 -380 25 -44 65 -118 90
-165 24 -47 49 -92 56 -100 7 -8 24 -35 37 -60 13 -25 37 -62 53 -83 24 -31
34 -38 59 -35 45 5 65 41 88 159 11 57 24 129 30 159 22 118 83 250 170 370
71 99 178 243 227 305 102 130 231 381 257 500 4 17 9 37 12 45 42 109 66 446
44 615 -22 164 -70 343 -130 480 -87 203 -237 448 -330 542 -54 56 -230 270
-300 367 -153 212 -246 416 -261 575 -11 122 13 413 28 326 2 -11 12 -54 22
-95z m-4235 54 c51 -20 91 -68 107 -127 9 -37 10 -61 0 -114 -24 -141 -95
-261 -172 -293 -26 -11 -42 -9 -111 10 -69 20 -83 21 -105 10 -34 -19 -113
-100 -120 -125 -4 -11 -11 -26 -18 -34 -18 -23 -45 -151 -46 -217 0 -68 22
-194 47 -264 36 -101 89 -179 215 -313 103 -111 167 -164 251 -207 26 -14 47
-29 47 -34 0 -15 -111 1 -195 29 -90 30 -183 74 -234 110 -67 49 -177 182
-227 275 -14 25 -34 60 -45 77 -28 45 -56 122 -80 227 -17 70 -20 111 -17 185
5 93 11 115 51 171 18 26 35 39 129 101 104 69 151 143 213 336 19 58 46 120
59 138 52 68 162 94 251 59z m3489 -117 c15 -36 58 -83 146 -159 108 -92 184
-149 234 -172 50 -24 216 -176 216 -198 0 -7 6 -19 14 -27 8 -9 27 -41 42 -71
50 -97 167 -259 309 -429 106 -127 179 -219 231 -293 47 -67 47 -67 19 -123
-16 -30 -43 -73 -62 -94 -18 -22 -33 -43 -33 -48 0 -14 -73 -78 -139 -122
-114 -78 -343 -173 -371 -156 -16 10 -12 31 10 50 44 40 80 163 82 282 1 101
-32 230 -75 292 -18 25 -59 75 -92 111 -56 62 -71 85 -108 170 -73 168 -103
207 -326 435 -81 83 -155 168 -165 189 -16 34 -18 54 -12 145 13 217 45 302
80 218z m-2486 -89 c37 -18 108 -67 157 -108 59 -50 107 -82 140 -93 28 -9
117 -23 198 -32 81 -8 156 -19 166 -24 10 -6 24 -24 31 -41 12 -28 11 -37 -9
-77 -35 -73 -67 -108 -126 -138 -104 -52 -268 -44 -329 17 -42 43 -71 84 -111
163 -20 38 -43 77 -51 86 -8 8 -14 19 -14 24 0 4 -24 35 -52 70 -51 59 -138
115 -180 115 -26 0 -48 11 -48 25 0 18 68 44 118 44 29 1 65 -10 110 -31z
m4693 -70 c53 -28 64 -39 76 -73 20 -57 9 -166 -24 -230 -35 -70 -75 -108
-150 -145 -111 -55 -223 -51 -271 9 -26 33 -62 111 -73 158 -23 103 33 228
124 275 70 36 70 36 169 37 79 1 92 -2 149 -31z m2248 -45 c46 -34 63 -80 57
-156 -6 -82 -41 -140 -105 -176 -38 -21 -47 -22 -81 -12 -43 13 -116 86 -126
126 -3 14 -4 49 -2 78 8 84 45 127 138 161 27 10 93 -2 119 -21z m-7127 -124
c40 -20 64 -51 93 -117 14 -33 16 -51 9 -80 -5 -21 -16 -38 -25 -40 -22 -4
-97 48 -140 95 -19 21 -42 57 -52 79 -18 40 -18 43 -2 68 15 23 23 26 49 20
17 -3 47 -15 68 -25z m6700 -201 c132 -139 171 -175 243 -223 44 -29 94 -59
112 -68 88 -46 250 -79 367 -76 47 2 88 0 92 -3 12 -13 -8 -27 -60 -42 -83
-24 -203 -19 -346 16 -25 6 -61 14 -80 18 -64 15 -122 40 -234 103 -110 62
-111 62 -191 62 -68 0 -89 -4 -137 -28 -70 -35 -150 -106 -201 -179 -54 -79
-82 -195 -73 -308 18 -243 18 -305 3 -370 -27 -112 -52 -158 -140 -248 -140
-144 -229 -202 -557 -365 -107 -54 -220 -116 -251 -140 -89 -66 -187 -156
-219 -201 -39 -54 -90 -161 -126 -261 -25 -69 -29 -94 -28 -180 0 -73 6 -115
21 -157 20 -58 20 -58 -6 -75 -14 -10 -42 -25 -61 -34 -19 -10 -64 -42 -100
-73 -36 -31 -85 -73 -109 -94 -23 -20 -50 -45 -60 -56 -9 -10 -23 -26 -32 -35
-117 -120 -272 -369 -333 -536 -15 -38 -30 -79 -35 -90 -28 -63 -68 -279 -76
-415 -9 -153 -16 -222 -22 -216 -4 3 -12 36 -19 73 -15 77 -18 431 -4 503 4
25 13 74 19 110 14 79 40 161 84 260 33 76 47 101 98 178 16 23 29 46 29 51 0
5 7 15 16 22 9 8 26 28 38 45 11 17 48 67 81 110 33 44 72 97 86 119 109 165
166 259 208 343 59 116 131 270 131 278 0 4 13 32 29 63 15 31 31 67 35 81 4
14 20 59 36 100 15 41 36 102 46 135 14 45 32 74 76 121 32 33 74 72 95 86
104 69 109 71 263 119 161 51 301 99 324 111 46 24 166 120 208 167 25 27 63
85 84 128 39 78 39 78 36 368 -2 194 1 310 9 350 14 70 50 153 85 195 30 35
118 89 194 120 30 12 64 27 75 33 11 6 43 15 70 20 67 12 137 24 154 26 7 0
31 -18 53 -41z m2043 -80 c72 -80 152 -204 215 -333 102 -209 132 -293 165
-449 9 -44 19 -84 22 -90 7 -11 18 -120 29 -299 7 -103 -6 -256 -32 -387 -34
-167 -96 -369 -114 -370 -3 0 -6 78 -7 173 -1 162 -5 196 -39 332 -35 139 -69
209 -170 348 -81 110 -170 199 -254 253 -33 21 -73 48 -87 60 -26 20 -26 20 4
55 39 45 77 115 119 219 19 47 39 94 43 105 17 39 44 157 46 203 2 26 4 84 4
130 1 94 9 101 56 50z m-6058 -90 c60 -62 122 -133 138 -158 38 -60 105 -192
105 -207 0 -15 -52 -43 -80 -43 -12 0 -46 -12 -75 -26 -66 -33 -124 -99 -167
-191 -26 -56 -33 -83 -36 -156 -6 -109 10 -190 55 -285 38 -82 36 -92 -23
-117 -119 -49 -278 -228 -326 -365 -42 -119 -68 -248 -68 -333 0 -53 -7 -77
-24 -77 -6 0 -59 49 -117 108 -100 102 -106 111 -123 176 -16 58 -18 90 -13
202 4 74 11 142 16 152 5 9 14 35 21 57 7 22 23 63 36 92 13 28 24 56 24 61 0
5 29 60 65 121 36 62 65 115 65 118 0 3 15 23 33 46 53 68 142 215 206 342 93
186 120 276 153 513 6 45 14 82 18 82 4 0 56 -51 117 -112z m-4398 -105 c6
-21 11 -48 11 -61 0 -36 40 -182 67 -242 63 -142 100 -205 186 -317 15 -20 27
-41 27 -47 0 -6 -28 -33 -62 -61 -35 -27 -103 -90 -154 -140 -106 -106 -198
-244 -227 -344 -63 -220 -61 -204 -61 -418 -1 -110 -4 -199 -7 -197 -9 5 -93
221 -113 289 -10 33 -21 74 -26 90 -34 118 -36 467 -4 645 23 126 57 252 92
345 26 70 164 368 190 410 48 78 53 85 62 85 5 0 14 -17 19 -37z m1961 0 c99
-65 123 -131 98 -261 -21 -104 -60 -183 -122 -246 -87 -90 -185 -142 -332
-177 -76 -18 -107 -20 -214 -15 -69 3 -150 13 -180 22 -68 20 -246 110 -282
143 -33 30 -27 47 10 27 59 -32 175 -57 292 -63 137 -7 245 7 336 43 33 13 64
24 68 24 4 0 46 23 94 52 160 96 219 178 181 251 -16 30 -28 37 -66 37 -24 0
-47 -13 -94 -52 -109 -93 -119 -100 -134 -94 -22 8 -18 35 14 114 40 98 81
146 166 190 50 26 130 29 165 5z m5630 -205 c-1 -57 3 -173 9 -258 5 -85 7
-180 2 -211 -8 -60 -39 -110 -94 -152 -38 -29 -168 -97 -185 -97 -18 0 -14 26
10 73 11 23 25 56 29 72 4 17 24 83 42 148 19 65 40 148 47 185 7 37 21 84 31
104 11 21 19 44 19 52 0 18 77 186 85 186 3 0 5 -46 5 -102z m690 78 c-8 -6
-19 -19 -25 -27 -5 -9 -23 -36 -40 -60 -43 -64 -65 -125 -72 -205 -16 -190 93
-363 307 -489 114 -67 127 -83 122 -148 -3 -33 -75 -107 -129 -132 -28 -14
-59 -25 -69 -25 -9 0 -37 -6 -63 -14 -57 -18 -147 -36 -226 -46 -102 -12 -209
-32 -227 -41 -27 -14 -58 -11 -58 5 0 8 16 27 35 41 43 34 137 148 181 221 67
111 69 122 70 409 1 266 6 312 44 385 20 39 66 86 120 123 35 24 59 27 30 3z
m-3528 -366 c24 -10 55 -29 69 -42 91 -79 113 -292 40 -399 -38 -57 -76 -74
-161 -74 -139 1 -210 74 -231 235 -13 110 6 196 56 246 19 19 42 34 52 34 10
0 25 5 33 10 25 16 96 11 142 -10z m-2608 -147 c50 -95 56 -116 66 -251 6 -76
17 -153 24 -172 8 -19 24 -64 37 -100 48 -131 240 -285 454 -363 159 -57 227
-78 322 -97 139 -28 238 -57 295 -86 14 -8 32 -14 39 -14 26 0 177 -96 256
-161 123 -104 163 -146 236 -252 76 -110 117 -200 142 -308 29 -127 11 -148
-45 -52 -42 72 -96 137 -210 252 -77 79 -173 149 -304 225 -66 38 -254 112
-308 121 -23 4 -47 10 -53 14 -15 9 -67 23 -430 116 -181 46 -352 92 -380 101
-184 61 -334 164 -437 301 -60 79 -207 363 -227 438 -10 36 -9 42 10 58 12 9
32 17 46 17 49 0 291 131 373 203 24 20 52 37 61 37 10 0 25 -12 33 -27z
m3525 -328 c-83 -161 -93 -175 -194 -261 -137 -115 -220 -152 -575 -253 -224
-64 -315 -100 -399 -156 -78 -53 -86 -59 -150 -120 -95 -90 -181 -210 -205
-287 -15 -49 -40 5 -51 112 -11 97 19 313 57 415 33 90 61 135 120 192 105
101 177 122 365 103 299 -30 393 -24 593 37 177 53 406 206 448 297 10 22 16
26 24 18 9 -9 0 -34 -33 -97z m4683 12 c9 -12 29 -36 43 -53 14 -18 25 -36 25
-42 0 -5 8 -20 19 -33 17 -22 51 -103 80 -192 40 -121 55 -456 26 -579 -55
-234 -171 -421 -390 -628 -49 -47 -131 -132 -181 -190 -50 -58 -95 -105 -100
-105 -15 0 -17 36 -6 89 18 85 40 218 47 281 8 80 33 201 52 250 18 47 75 133
153 230 69 86 137 194 156 248 8 22 18 45 23 51 5 6 22 47 36 91 22 64 28 104
32 210 6 154 -7 258 -40 329 -14 28 -28 62 -32 74 -7 23 -6 23 17 8 12 -9 31
-27 40 -39z m-126 -287 c-15 -93 -104 -347 -149 -425 -47 -80 -118 -185 -170
-250 -27 -33 -55 -76 -64 -95 -49 -110 -77 -212 -93 -330 -8 -62 -31 -210 -49
-315 -13 -73 -104 -368 -139 -450 -32 -76 -107 -230 -138 -283 -21 -36 -146
-227 -179 -272 -153 -211 -317 -371 -475 -465 -36 -21 -90 -54 -120 -74 -30
-19 -100 -59 -155 -87 -55 -28 -116 -61 -135 -72 -19 -12 -48 -28 -65 -36
-142 -67 -247 -115 -285 -130 -25 -10 -58 -24 -75 -31 -16 -7 -61 -25 -100
-39 -38 -15 -82 -33 -97 -41 -14 -8 -32 -15 -38 -15 -41 0 -427 -188 -645
-314 -172 -99 -271 -177 -376 -297 -91 -103 -210 -261 -234 -311 -9 -21 -24
-38 -31 -38 -11 0 -14 23 -13 113 1 225 49 390 147 516 109 138 288 246 502
301 47 12 103 27 125 32 145 38 502 184 546 224 8 8 19 14 24 14 5 0 60 39
124 87 109 81 232 199 285 275 37 51 106 165 106 175 0 4 19 53 41 108 23 55
48 123 55 150 7 28 22 84 33 125 10 41 22 112 26 158 4 45 10 82 14 82 20 0
34 -70 45 -220 10 -136 10 -188 -1 -295 -8 -71 -18 -139 -23 -150 -21 -49 -39
-117 -33 -130 10 -27 78 -18 156 21 138 70 267 164 394 290 67 66 127 131 133
145 5 13 34 54 63 92 30 37 64 87 76 110 12 23 34 62 48 87 69 122 77 145 81
215 2 55 -1 76 -16 100 -22 36 -90 71 -165 87 -48 10 -62 9 -123 -11 -161 -53
-348 -228 -379 -354 -4 -15 -12 -26 -18 -24 -6 2 -18 25 -26 53 -17 50 -65
139 -102 186 -12 14 -18 31 -15 37 9 13 153 121 163 121 3 0 14 6 22 14 9 7
61 36 116 64 132 67 247 147 284 198 16 23 41 65 56 94 23 46 27 65 28 159 1
95 -2 110 -24 149 -13 23 -32 45 -41 48 -10 3 -18 9 -18 14 0 5 -42 32 -92 61
-121 69 -317 198 -379 250 -27 23 -49 49 -49 60 0 10 3 19 6 19 3 0 24 -13 47
-29 69 -47 192 -100 270 -117 204 -44 420 -56 547 -30 67 13 189 62 295 118
38 20 85 59 129 105 135 145 208 250 281 406 28 58 54 107 59 107 5 0 6 -18 2
-40z m-4516 -99 c-10 -40 -24 -79 -29 -84 -6 -6 -11 -18 -11 -27 0 -20 -63
-141 -99 -190 -93 -128 -202 -224 -289 -254 -55 -20 -268 -113 -335 -147 -61
-30 -82 -35 -91 -20 -8 12 13 179 28 226 8 22 21 65 30 96 19 65 44 91 106
108 163 46 425 154 477 198 12 10 46 34 74 53 29 19 65 47 81 62 32 30 70 59
74 55 1 -1 -6 -35 -16 -76z m3767 -13 c62 -58 83 -106 82 -193 0 -38 -5 -84
-12 -102 -24 -63 -142 -134 -199 -120 -36 9 -115 94 -146 157 -75 152 11 298
176 300 48 0 56 -4 99 -42z m-3568 -91 c18 -78 14 -251 -10 -353 -11 -49 -24
-109 -29 -134 -19 -101 -98 -280 -173 -395 -50 -77 -61 -91 -139 -183 -29 -35
-63 -78 -75 -95 -12 -18 -31 -41 -41 -52 -43 -47 -92 -114 -119 -166 -45 -84
-44 -83 -54 -68 -13 20 -11 293 2 326 6 15 15 53 20 84 9 57 106 262 148 312
6 8 23 36 37 62 14 26 44 71 67 99 132 158 202 270 271 430 24 55 47 125 50
155 12 94 18 91 45 -22z m-4829 45 c74 -70 77 -157 9 -239 -21 -26 -49 -53
-61 -60 -31 -17 -108 -16 -149 1 -57 24 -109 90 -109 139 0 35 35 108 66 137
53 50 77 60 141 60 57 0 64 -2 103 -38z m-651 -253 c122 -130 205 -189 326
-228 104 -33 132 -47 221 -108 80 -55 204 -183 204 -212 0 -5 6 -25 14 -43 7
-18 21 -58 30 -88 36 -125 67 -234 85 -305 61 -236 117 -385 187 -496 122
-195 310 -376 466 -448 125 -57 168 -66 343 -66 230 0 335 31 472 137 100 76
143 142 197 299 22 65 26 92 26 196 0 137 -18 234 -62 332 -36 81 -76 131
-135 170 -36 24 -58 31 -94 31 -55 0 -69 -15 -69 -73 0 -30 10 -45 70 -104 44
-44 70 -77 70 -91 0 -26 -31 -30 -50 -8 -6 8 -55 29 -108 47 -53 17 -106 39
-117 48 -59 50 -168 79 -282 77 -65 -2 -83 1 -83 11 0 25 18 50 77 108 137
134 335 169 546 96 115 -39 230 -126 285 -215 119 -190 156 -324 172 -636 8
-153 19 -224 49 -340 38 -141 48 -171 80 -230 74 -141 72 -136 60 -185 -16
-65 -6 -215 21 -300 13 -38 40 -96 61 -128 32 -48 35 -59 22 -64 -8 -3 -30 -1
-47 5 -18 7 -49 12 -68 12 -20 0 -69 13 -109 30 -41 16 -78 30 -82 30 -28 0
-383 178 -453 227 -75 52 -147 130 -211 228 -26 39 -63 96 -84 128 -62 94
-120 130 -173 105 -22 -10 -26 -18 -26 -57 0 -25 7 -59 15 -75 8 -15 15 -33
15 -39 0 -20 89 -283 115 -338 34 -73 80 -157 98 -177 8 -9 46 -50 83 -90 37
-39 64 -75 61 -78 -3 -4 -82 26 -174 66 -216 93 -334 149 -528 249 -51 27
-230 148 -297 201 -83 67 -261 242 -309 305 -52 66 -200 290 -227 340 -32 61
-112 237 -112 247 0 5 -7 16 -15 24 -8 9 -15 27 -15 40 0 14 -7 41 -15 61 -8
19 -15 46 -15 58 0 13 -6 50 -14 82 -25 103 -40 313 -32 461 7 166 -2 225 -48
285 -29 39 -132 122 -256 207 -59 40 -123 98 -133 120 -4 8 -27 47 -52 85 -70
107 -100 175 -77 175 4 0 50 -45 101 -101z m885 -86 c36 -81 47 -150 36 -220
-17 -103 -20 -104 -81 -27 -25 32 -68 69 -99 88 -30 18 -56 40 -58 49 -2 10
23 35 72 71 41 31 78 60 81 66 13 20 32 9 49 -27z m10020 -303 c98 -37 150
-136 131 -251 -9 -50 -25 -88 -65 -149 -45 -68 -50 -85 -49 -163 0 -74 -1 -71
73 -208 46 -85 87 -255 93 -387 6 -121 -9 -319 -32 -417 -43 -187 -63 -251
-113 -355 -30 -63 -58 -117 -62 -120 -4 -3 -20 -27 -35 -55 -38 -71 -65 -107
-160 -215 -104 -119 -163 -176 -171 -167 -4 4 0 30 9 59 9 29 19 74 23 99 10
75 -20 231 -59 305 -20 38 -114 131 -152 148 -23 11 -35 24 -35 38 0 18 49
127 70 153 4 6 29 53 55 105 26 52 51 102 56 110 5 8 16 30 25 49 27 58 70
102 166 167 169 115 244 247 172 303 -27 21 -27 21 -57 2 -16 -10 -46 -33 -66
-49 -109 -93 -166 -132 -228 -155 -161 -60 -261 -78 -465 -84 -138 -4 -177 -2
-217 11 -28 9 -60 16 -73 16 -14 0 -33 7 -44 15 -10 8 -24 15 -31 15 -14 0
-119 70 -150 99 -45 43 -20 55 45 21 21 -11 74 -27 118 -36 129 -26 298 -7
544 60 160 43 291 121 431 256 84 82 119 139 119 197 0 32 -7 44 -51 85 -27
26 -58 50 -68 53 -22 7 -68 98 -77 153 -9 60 13 148 50 197 60 78 87 92 218
114 4 0 32 -8 62 -19z m-3669 -19 c77 -50 102 -86 121 -174 15 -73 9 -157 -17
-208 -24 -48 -110 -125 -149 -133 -40 -7 -60 3 -100 54 -24 31 -39 40 -62 40
-16 0 -42 -9 -58 -20 -41 -30 -54 -70 -46 -150 6 -70 6 -70 -19 -70 -14 0 -60
9 -103 19 -100 25 -281 35 -407 21 -89 -9 -107 -15 -173 -52 -139 -80 -319
-299 -370 -453 -43 -129 -51 -410 -15 -565 8 -36 28 -98 45 -138 31 -73 31
-73 1 -150 -35 -87 -49 -167 -58 -330 -5 -101 -8 -116 -33 -152 -15 -22 -35
-42 -44 -45 -10 -4 -27 -19 -38 -36 -12 -16 -28 -29 -36 -29 -26 0 -69 137
-105 335 -19 100 -22 158 -23 345 0 218 3 253 39 415 37 172 126 394 184 460
10 11 36 47 57 80 42 65 101 133 204 235 68 68 87 81 187 130 59 29 68 30 190
30 184 0 288 32 376 117 34 33 117 180 117 208 0 25 43 111 73 145 17 19 44
44 61 54 63 39 155 47 201 17z m-2422 -67 c3 -3 -9 -29 -27 -57 -28 -46 -43
-78 -101 -212 -28 -65 -55 -206 -55 -290 0 -61 -3 -85 -12 -85 -19 0 -83 142
-114 250 -14 52 -29 126 -32 163 -5 68 -4 69 29 98 19 17 50 37 69 45 19 9 42
22 50 29 8 7 24 15 35 18 11 3 45 15 75 26 59 22 73 24 83 15z m-5851 -68 c63
-28 117 -84 148 -153 17 -37 21 -62 18 -113 -4 -80 -47 -173 -87 -190 -58 -25
-91 -68 -91 -120 0 -73 59 -130 215 -208 140 -70 159 -77 260 -102 58 -15 133
-25 210 -27 105 -4 133 -2 220 20 131 33 156 44 240 99 72 48 124 96 144 136
7 12 16 20 22 17 14 -9 11 -49 -6 -71 -8 -10 -15 -25 -15 -33 0 -22 -61 -113
-96 -143 -176 -155 -388 -219 -683 -204 -73 4 -143 12 -154 18 -12 6 -62 13
-112 16 -121 6 -125 2 -125 -122 0 -54 6 -114 15 -142 8 -27 15 -57 15 -68 0
-37 80 -183 127 -233 35 -36 76 -63 153 -100 145 -69 184 -80 346 -93 105 -9
173 -10 274 -1 185 15 245 14 320 -8 113 -32 164 -74 203 -166 21 -50 67 -222
67 -252 0 -12 6 -42 14 -65 8 -24 17 -59 20 -79 11 -60 68 -124 152 -170 41
-23 74 -43 72 -44 -2 -2 -28 -13 -58 -24 -43 -16 -78 -21 -156 -21 -107 0
-161 15 -227 64 -29 21 -122 142 -135 174 -16 43 -70 108 -157 190 -52 49 -95
94 -95 100 0 18 90 15 173 -5 64 -16 77 -23 128 -74 31 -31 60 -68 64 -81 11
-37 64 -140 82 -160 23 -25 89 -25 103 1 15 30 12 77 -11 159 -42 152 -77 201
-186 264 -107 62 -188 69 -470 38 -116 -13 -125 -13 -215 9 -171 42 -400 129
-498 189 -19 12 -42 22 -52 22 -22 0 -68 -56 -68 -84 0 -26 32 -71 80 -113 46
-39 175 -109 220 -118 32 -7 138 -39 265 -82 128 -42 310 -144 337 -187 3 -6
17 -23 30 -37 13 -15 41 -57 63 -94 89 -149 184 -247 290 -300 78 -38 217 -75
284 -75 115 0 262 46 471 150 274 135 440 192 630 216 61 7 188 -9 285 -36 44
-12 99 -28 122 -34 24 -7 49 -18 55 -24 20 -20 -4 -29 -96 -36 -90 -8 -292
-57 -342 -84 -10 -6 -37 -19 -59 -29 -44 -20 -67 -34 -168 -102 -67 -45 -267
-242 -361 -357 -127 -155 -314 -347 -411 -421 -52 -39 -121 -69 -205 -88 -87
-19 -94 -4 -20 46 28 19 64 53 81 77 17 24 49 64 70 89 22 24 49 61 60 81 11
21 30 55 43 77 82 139 100 202 72 240 -12 17 -25 20 -78 18 -35 -1 -108 -13
-163 -28 -191 -51 -351 -66 -479 -45 -59 9 -163 25 -276 40 -76 10 -295 75
-357 105 -81 38 -303 181 -303 194 0 4 -30 39 -67 77 -70 72 -108 122 -100
130 5 6 101 -50 132 -76 31 -26 90 -54 210 -100 166 -64 211 -77 401 -115 224
-45 230 -45 251 0 15 32 16 39 2 78 -11 28 -25 47 -45 56 -36 18 -137 40 -183
41 -67 0 -304 76 -416 133 -113 58 -266 161 -349 236 -92 83 -193 189 -221
232 -5 9 -28 42 -49 75 -86 128 -134 287 -161 524 -29 261 -30 340 -5 490 24
141 34 169 105 285 24 39 49 90 55 115 16 60 5 130 -28 188 -68 115 -97 241
-71 305 21 53 69 101 123 124 66 29 101 28 168 -1z m3909 -416 c10 -6 38 -28
61 -50 24 -22 46 -40 49 -40 5 0 59 -78 115 -165 33 -53 71 -193 99 -365 9
-58 22 -141 30 -185 8 -44 20 -118 27 -164 11 -79 11 -85 -6 -95 -10 -6 -45
-28 -78 -50 -45 -29 -62 -35 -72 -27 -20 17 -80 214 -106 351 -6 30 -15 132
-20 225 -9 165 -29 307 -50 345 -5 10 -10 27 -10 37 0 10 -18 54 -40 98 -22
44 -40 83 -40 87 0 11 18 10 41 -2z m-958 -155 c52 -22 95 -62 122 -116 29
-55 31 -101 10 -152 -23 -56 -60 -87 -118 -98 -60 -11 -98 -2 -163 36 -55 32
-83 85 -90 168 -4 49 -1 69 14 97 36 68 144 99 225 65z m6847 -349 c0 -19 -7
-39 -15 -46 -8 -7 -15 -17 -15 -22 0 -6 -23 -41 -51 -80 -27 -38 -53 -77 -56
-86 -7 -19 -228 -285 -266 -320 -46 -43 -44 -18 9 186 36 136 93 243 176 330
49 51 88 73 143 82 55 9 75 -3 75 -44z m-8357 -93 c47 -137 53 -153 65 -165 7
-7 12 -18 12 -25 0 -20 161 -288 217 -361 134 -177 416 -449 543 -526 25 -15
52 -31 60 -36 8 -5 56 -34 105 -63 161 -95 185 -112 182 -127 -1 -8 -13 -16
-27 -18 -44 -5 -183 -41 -240 -63 -75 -28 -88 -32 -223 -74 -135 -42 -138 -42
-212 26 -46 43 -61 77 -99 234 -56 232 -112 359 -197 445 -46 46 -73 62 -140
88 -114 43 -233 56 -387 41 -177 -18 -438 1 -522 38 -126 55 -230 123 -230
151 0 9 -8 24 -17 34 -12 13 -17 38 -17 86 -1 67 -1 67 29 65 17 -1 82 -5 146
-9 140 -8 268 5 429 47 169 43 286 108 400 223 36 36 72 65 81 65 10 1 24 -24
42 -76z m8979 -38 c40 -36 76 -65 80 -65 4 0 30 -13 58 -30 28 -16 56 -30 63
-30 7 0 24 -7 39 -14 43 -23 184 -55 291 -66 54 -6 153 -10 220 -8 111 3 122
1 125 -15 2 -10 -3 -33 -11 -50 -8 -18 -18 -53 -21 -80 -8 -55 -36 -121 -67
-161 -12 -16 -52 -41 -88 -58 -36 -16 -80 -36 -98 -44 -17 -8 -37 -14 -45 -14
-51 -2 -189 -118 -233 -195 -38 -69 -65 -165 -65 -233 0 -113 80 -224 206
-284 57 -27 72 -30 129 -26 53 5 71 11 105 38 37 29 40 35 40 80 0 42 -4 51
-29 69 -35 25 -64 26 -101 5 -35 -22 -74 -12 -110 26 -62 66 -42 232 36 302
72 63 191 91 276 65 55 -17 128 -71 128 -95 0 -8 8 -24 17 -34 35 -39 34 -269
-2 -338 -8 -16 -15 -35 -15 -42 0 -22 -63 -103 -115 -148 -76 -66 -147 -108
-222 -130 -37 -12 -83 -26 -101 -31 -62 -20 -216 -28 -342 -19 -131 10 -320
34 -380 50 -19 5 -62 14 -95 21 -101 21 -118 37 -62 60 17 7 43 21 57 30 14 9
52 34 85 55 33 21 82 61 108 89 48 50 134 165 145 195 8 19 40 67 82 120 36
45 59 100 60 142 0 39 -44 98 -98 131 -40 24 -55 27 -98 23 -48 -4 -126 -36
-184 -76 -136 -94 -286 -169 -395 -200 -84 -24 -226 -43 -251 -33 -24 9 -16
28 19 45 50 25 197 161 306 285 94 107 126 151 236 323 26 41 55 86 64 100 9
14 21 36 28 50 7 14 17 32 22 40 17 25 101 208 101 218 0 9 5 13 27 21 1 1 35
-28 75 -64z m-1566 -49 c-24 -218 -62 -347 -151 -508 -26 -46 -65 -107 -88
-137 -51 -67 -153 -170 -204 -207 -21 -15 -42 -33 -48 -38 -43 -46 -182 -117
-370 -190 -66 -26 -127 -51 -135 -55 -8 -4 -50 -18 -93 -31 -61 -18 -80 -21
-86 -11 -5 7 4 49 19 94 15 45 30 105 34 134 17 135 -44 291 -146 370 -32 24
-83 56 -115 70 -53 24 -66 26 -215 27 -130 0 -158 3 -158 15 0 16 67 121 78
121 4 0 36 28 71 61 86 81 223 152 366 190 89 24 259 25 415 3 122 -17 366
-15 425 4 17 5 59 18 95 28 73 20 81 23 205 86 49 26 93 44 98 41 5 -3 6 -33
3 -67z m1484 -875 c0 -5 -19 -33 -43 -63 -24 -29 -53 -70 -66 -90 -58 -96
-161 -191 -249 -230 -86 -38 -214 -68 -292 -69 -104 -2 -132 -9 -149 -41 -14
-24 -14 -30 2 -62 12 -26 40 -51 102 -91 47 -30 91 -55 98 -55 7 0 21 -6 32
-13 46 -32 252 -97 400 -127 192 -39 246 -44 455 -44 210 0 218 1 330 32 63
17 126 34 140 38 14 3 34 10 45 14 11 5 61 25 110 45 50 20 120 54 157 76 36
21 69 39 73 39 8 0 60 37 118 84 26 21 51 36 54 32 8 -8 -11 -50 -40 -88 -43
-58 -240 -258 -260 -264 -12 -4 -48 -23 -81 -43 -91 -56 -177 -93 -291 -126
-33 -9 -69 -21 -80 -26 -20 -8 -92 -21 -235 -40 -43 -7 -145 -9 -240 -5 -163
5 -281 21 -390 52 -80 23 -308 110 -355 136 -22 12 -74 34 -115 49 -41 14
-163 61 -270 104 -230 91 -247 97 -325 120 -33 10 -80 24 -104 31 -27 8 -92
14 -160 14 -141 0 -169 11 -88 35 31 9 60 21 63 27 4 5 21 16 38 24 17 8 56
28 86 45 30 17 87 44 125 61 39 16 124 55 190 87 120 56 120 56 343 53 126 -1
237 2 255 7 18 5 73 22 122 37 50 15 148 56 219 91 122 60 147 76 214 130 27
23 62 30 62 14z m-4705 -147 c19 -20 35 -42 35 -50 0 -8 -39 -57 -87 -107
-238 -251 -295 -339 -329 -514 -21 -111 -22 -293 0 -388 38 -171 97 -267 271
-440 66 -66 132 -138 148 -161 15 -22 35 -49 45 -60 47 -53 112 -146 112 -160
0 -9 -8 -28 -19 -42 -10 -15 -23 -43 -30 -63 -12 -36 -43 -59 -81 -59 -18 0
-70 52 -70 70 0 5 -23 40 -51 77 -47 62 -70 90 -131 163 -86 101 -238 302
-238 314 0 3 -15 27 -34 53 -43 62 -61 97 -90 180 -53 153 -56 172 -56 307 0
149 13 203 81 342 43 90 181 272 295 390 11 12 30 33 41 48 60 76 120 136 136
136 9 0 33 -16 52 -36z m279 -299 c48 -58 102 -125 120 -148 66 -86 153 -251
170 -320 6 -26 5 -28 -16 -21 -12 4 -39 18 -59 31 -27 18 -66 28 -153 40 -111
16 -123 16 -204 -1 -69 -14 -96 -26 -138 -58 -86 -65 -144 -175 -144 -274 0
-46 -8 -74 -20 -74 -4 0 -18 33 -30 73 -31 100 -32 245 -2 341 42 132 124 270
211 357 14 14 52 56 85 93 32 36 66 66 76 66 9 0 56 -47 104 -105z m97 -618
c61 -49 79 -71 102 -127 18 -45 22 -74 22 -160 -1 -94 -4 -116 -37 -210 -20
-58 -53 -134 -72 -170 -19 -36 -45 -84 -56 -107 -12 -24 -25 -43 -30 -43 -5 0
-23 26 -40 58 -16 31 -57 95 -90 142 -33 47 -79 123 -102 169 -41 83 -42 86
-42 190 0 118 14 168 60 219 46 50 108 73 185 70 54 -3 72 -8 100 -31z"/>
<path d="M6141 10634 c-12 -15 -21 -37 -21 -49 0 -25 21 -91 47 -145 9 -19 23
-51 32 -70 39 -87 118 -213 166 -266 11 -12 33 -40 50 -63 45 -64 213 -226
286 -277 145 -100 169 -115 250 -152 111 -51 135 -57 165 -37 31 20 32 64 2
117 -20 35 -74 75 -219 163 -112 68 -304 241 -399 360 -61 77 -140 212 -187
317 -47 107 -66 128 -114 128 -29 0 -42 -6 -58 -26z"/>
<path d="M8728 7452 c-67 -32 -108 -77 -124 -139 -13 -51 -13 -64 0 -117 28
-108 121 -175 229 -163 78 8 119 29 163 82 39 48 39 48 39 144 0 97 0 97 -40
138 -22 23 -57 49 -77 58 -49 20 -144 19 -190 -3z"/>
<path d="M4758 7393 c-55 -16 -90 -55 -114 -126 -14 -41 -14 -50 1 -101 17
-58 37 -84 90 -117 38 -24 131 -25 177 -3 47 22 94 90 101 144 14 109 -26 178
-119 205 -61 18 -74 18 -136 -2z"/>
<path d="M5280 7391 c-38 -15 -50 -27 -72 -71 -16 -30 -28 -70 -28 -89 0 -56
42 -135 91 -170 36 -27 51 -31 103 -31 76 0 131 29 163 85 36 65 39 107 9 167
-13 29 -33 62 -43 73 -43 48 -150 65 -223 36z"/>
<path d="M4930 6905 c-47 -6 -107 -18 -135 -25 -66 -16 -244 -105 -309 -153
-49 -37 -148 -136 -194 -196 -33 -43 -122 -220 -122 -243 0 -10 -7 -33 -16
-50 -12 -23 -18 -70 -21 -177 -5 -147 -5 -151 37 -311 13 -50 64 -153 115
-229 49 -74 163 -192 221 -227 123 -74 225 -117 359 -150 100 -25 351 -25 460
0 44 10 89 22 100 27 11 4 49 20 85 34 146 59 313 194 392 315 86 133 121 229
138 382 16 145 2 315 -33 409 -88 231 -259 419 -474 520 -166 78 -389 105
-603 74z m305 -374 c160 -50 252 -134 332 -299 30 -64 36 -86 40 -170 6 -114
-10 -192 -60 -291 -44 -87 -136 -179 -212 -212 -143 -63 -137 -62 -257 -56
-121 6 -189 26 -276 81 -49 30 -126 108 -147 146 -56 104 -85 198 -85 276 0
55 20 157 44 221 24 68 65 131 117 182 55 54 171 117 239 130 82 16 201 12
265 -8z"/>
<path d="M6473 6893 c-10 -4 -13 -187 -13 -868 0 -813 1 -865 18 -873 24 -11
379 -9 391 3 6 6 11 205 13 498 2 323 6 487 13 486 5 0 35 -30 65 -65 30 -35
64 -74 75 -87 11 -13 40 -48 65 -78 25 -29 50 -58 56 -64 6 -5 44 -50 85 -100
41 -49 81 -96 89 -105 26 -27 232 -269 292 -342 32 -39 75 -88 96 -110 39 -40
39 -40 203 -39 116 1 165 5 171 14 4 7 7 399 5 872 l-2 860 -204 3 c-113 1
-208 -1 -212 -5 -5 -5 -9 -227 -10 -496 -1 -268 -4 -487 -6 -487 -11 0 -56 41
-76 69 -31 42 -146 181 -177 212 -14 14 -61 70 -105 124 -44 54 -120 145 -170
203 -49 57 -110 130 -135 161 -25 31 -58 70 -74 86 -16 17 -47 54 -68 83 -40
52 -40 52 -207 51 -91 0 -172 -3 -178 -6z"/>
<path d="M8597 6893 c-4 -3 -7 -395 -7 -870 0 -863 0 -863 23 -871 27 -9 393
-9 402 -1 3 4 6 393 5 865 0 606 -4 861 -11 871 -9 10 -57 13 -209 13 -108 0
-200 -3 -203 -7z"/>
<path d="M9477 6893 c-11 -11 -8 -331 3 -338 6 -3 206 -6 445 -6 370 1 436 -1
441 -13 7 -19 -4 -38 -52 -89 -22 -23 -71 -80 -109 -127 -38 -47 -86 -104
-108 -127 -22 -23 -63 -71 -91 -107 -67 -86 -244 -290 -328 -379 -38 -39 -68
-75 -68 -78 0 -10 -120 -153 -136 -162 -11 -6 -14 -41 -14 -157 0 -82 4 -151
9 -155 5 -3 353 -5 772 -5 723 -1 764 0 770 17 3 10 7 85 8 167 2 115 -1 151
-11 157 -7 5 -220 9 -473 9 -272 0 -466 4 -475 10 -12 8 -7 18 31 57 64 67
139 158 139 169 0 5 14 22 31 38 17 16 63 68 102 115 39 47 77 93 84 101 7 8
47 56 88 105 42 50 117 140 168 200 51 61 106 128 122 150 16 22 60 75 98 118
68 78 68 78 65 205 l-3 127 -751 3 c-413 1 -754 -1 -757 -5z"/>
<path d="M11407 6894 c-4 -4 -7 -390 -7 -859 0 -665 3 -855 13 -868 11 -15 65
-17 651 -17 512 -1 641 2 647 12 14 21 11 322 -3 336 -9 9 -122 12 -445 12
-238 0 -434 1 -435 3 -2 1 -5 313 -8 692 l-5 690 -201 3 c-110 1 -203 -1 -207
-4z"/>
<path d="M13076 6891 c-9 -14 -8 -1724 1 -1732 10 -10 1367 -14 1382 -5 7 5
11 65 11 172 0 138 -2 166 -15 170 -8 4 -226 7 -483 8 l-467 1 -3 174 c-2 115
1 178 8 187 9 10 92 13 403 14 296 0 393 4 399 13 4 7 8 76 8 153 0 106 -3
144 -13 153 -10 7 -137 12 -408 13 l-394 3 0 170 0 170 454 2 c342 2 456 5
462 14 13 21 11 300 -2 315 -10 12 -122 14 -675 14 -370 0 -665 -4 -668 -9z"/>
<path d="M14892 6888 c-18 -18 -17 -1697 1 -1721 10 -14 37 -17 204 -18 106 0
197 2 203 6 6 4 10 87 10 230 0 123 4 235 10 249 10 26 10 26 160 26 170 0
157 5 230 -94 17 -22 65 -88 108 -146 42 -58 91 -125 107 -150 17 -24 38 -52
48 -62 9 -10 17 -22 17 -28 0 -25 49 -32 244 -32 110 1 207 1 214 1 19 1 13
32 -16 78 -46 71 -114 167 -142 199 -28 33 -89 119 -125 177 -11 18 -32 49
-47 68 -16 20 -28 41 -28 47 0 6 31 31 69 56 215 143 314 395 251 640 -36 140
-122 272 -225 342 -83 57 -199 102 -316 123 -103 19 -151 21 -539 21 -318 0
-429 -3 -438 -12z m883 -353 c27 -9 73 -29 101 -47 79 -47 112 -113 113 -223
1 -86 -20 -134 -80 -191 -69 -64 -127 -75 -384 -72 l-210 3 -3 259 c-2 182 1
263 9 272 17 21 385 20 454 -1z"/>
<path d="M9663 4879 c-24 -3 -45 -8 -48 -11 -4 -3 -13 -52 -20 -107 -14 -101
-55 -213 -108 -301 -65 -109 -200 -270 -214 -257 -4 4 -1 27 5 50 29 98 40
212 42 440 1 102 -2 152 -10 162 -10 12 -38 14 -138 12 -111 -2 -126 -4 -136
-21 -6 -11 -23 -33 -38 -49 -15 -16 -28 -32 -30 -36 -3 -7 -222 -184 -288
-233 -75 -55 -253 -135 -385 -174 -60 -17 -125 -29 -125 -21 0 2 30 24 67 48
76 50 71 46 225 196 138 134 237 258 220 275 -8 8 -71 11 -209 9 -197 -2 -197
-2 -272 -41 -42 -21 -98 -48 -126 -60 -27 -11 -59 -25 -70 -30 -21 -10 -62
-25 -185 -66 -117 -40 -414 -122 -467 -129 -26 -4 -82 -14 -123 -22 -58 -13
-137 -17 -350 -17 -226 -1 -292 2 -370 17 -172 33 -296 69 -468 134 -92 35
-149 39 -190 14 -33 -21 -52 -55 -52 -94 0 -13 22 -43 58 -77 45 -42 96 -74
213 -132 167 -84 333 -158 352 -158 7 0 46 -11 87 -24 192 -60 254 -77 370
-100 209 -41 313 -51 545 -51 290 0 402 17 790 116 244 62 251 64 295 80 55
21 218 106 260 137 116 84 163 124 241 204 47 48 91 88 99 88 30 0 -9 -353
-43 -386 -4 -4 -7 -14 -7 -21 0 -30 -94 -175 -138 -213 -26 -22 -51 -40 -55
-40 -5 0 -29 -17 -55 -39 -79 -66 -189 -121 -270 -137 -41 -8 -78 -16 -82 -19
-5 -3 -52 -14 -105 -25 -170 -35 -408 -36 -947 -3 -88 5 -128 -10 -153 -57
-20 -39 -19 -53 8 -77 79 -71 228 -93 632 -93 302 0 367 8 580 64 119 32 135
38 245 89 47 21 128 56 180 77 52 21 102 41 110 44 8 3 27 14 42 24 14 9 57
35 95 56 147 84 270 173 340 245 40 42 76 83 79 93 3 10 9 18 14 18 11 0 104
192 119 246 14 49 27 71 38 61 4 -5 22 -33 38 -62 72 -129 109 -192 131 -222
13 -17 24 -36 24 -41 0 -5 11 -21 25 -36 14 -15 25 -33 25 -40 0 -7 -19 -33
-42 -57 -123 -127 -305 -325 -317 -343 -8 -12 -36 -46 -61 -76 -89 -106 -120
-161 -215 -385 -20 -48 -44 -163 -51 -247 -7 -76 -6 -77 24 -107 42 -42 92
-43 133 -2 26 26 29 36 29 90 0 33 5 72 11 88 6 15 14 46 19 68 14 67 56 173
86 218 16 23 35 54 42 68 20 39 189 243 268 324 38 39 85 90 104 115 19 25 61
74 94 110 32 36 79 92 103 125 25 33 51 64 59 68 8 4 14 14 14 22 0 8 6 18 13
22 14 9 147 206 147 218 0 5 23 53 51 107 62 122 106 255 91 277 -5 9 -15 15
-20 14 -6 -2 -76 -3 -156 -4 -97 -1 -152 -6 -163 -14 -15 -11 -15 -17 1 -86
10 -41 27 -91 37 -111 24 -47 24 -69 -1 -101 -11 -14 -20 -28 -20 -32 0 -4
-13 -24 -30 -45 -16 -21 -30 -41 -30 -45 0 -12 -85 -115 -95 -115 -12 0 -53
58 -116 160 -67 111 -106 199 -130 295 -15 63 -36 105 -52 106 -6 0 -32 1 -57
2 -25 1 -64 0 -87 -4z m-1403 -248 c0 -6 -46 -40 -102 -77 -57 -37 -115 -75
-130 -86 -15 -10 -38 -23 -50 -28 -13 -6 -32 -16 -43 -22 -11 -7 -42 -27 -70
-44 -27 -17 -106 -60 -175 -95 -125 -64 -125 -64 -335 -64 -182 1 -231 4 -369
28 -87 15 -163 30 -170 34 -20 13 36 21 150 22 139 1 320 27 464 66 30 8 92
23 137 34 45 11 91 25 102 30 11 6 33 11 50 11 17 0 45 6 63 14 18 7 73 26
122 42 50 15 144 54 210 85 124 59 146 66 146 50z"/>
<path d="M10916 4854 c-9 -8 -16 -20 -16 -26 0 -5 -7 -24 -15 -41 -19 -42 -44
-114 -55 -156 -8 -31 -29 -81 -51 -121 -5 -8 -22 -42 -39 -74 -17 -33 -43 -79
-58 -104 -26 -41 -162 -220 -193 -252 -8 -8 -36 -42 -63 -75 -27 -33 -126
-137 -220 -231 -177 -177 -225 -234 -312 -367 -97 -148 -171 -369 -150 -451
25 -101 169 -78 181 29 12 97 29 152 80 250 45 87 65 115 157 218 110 124 208
217 228 217 28 0 320 -289 377 -373 50 -71 85 -146 125 -262 38 -112 51 -125
124 -125 42 0 59 5 75 21 19 19 21 29 16 79 -4 32 -14 76 -23 97 -9 21 -22 52
-28 68 -34 81 -96 192 -136 241 -25 31 -55 70 -68 87 -12 18 -86 93 -162 168
-103 100 -140 143 -140 160 0 15 24 50 63 94 35 39 84 100 110 137 59 83 77
95 103 66 11 -11 57 -53 104 -92 47 -40 117 -105 155 -146 39 -40 85 -87 103
-103 17 -16 32 -34 32 -41 0 -6 23 -45 50 -86 67 -100 134 -244 168 -360 59
-205 69 -224 128 -251 51 -23 83 -14 101 30 14 33 14 44 -6 141 -12 58 -27
119 -32 135 -6 17 -14 44 -19 60 -13 48 -48 123 -109 228 -31 54 -61 106 -66
117 -6 10 -24 34 -40 53 -17 20 -46 57 -65 82 -19 26 -49 63 -66 83 -28 35
-65 89 -127 189 -43 68 -68 189 -74 353 -3 80 -1 186 5 235 7 62 7 94 0 103
-16 18 -133 16 -152 -4z"/>
<path d="M11218 4860 c-19 -12 -19 -1 2 -234 9 -96 15 -120 49 -190 55 -112
140 -223 261 -341 176 -170 282 -247 471 -338 226 -110 407 -162 692 -202 143
-20 455 -20 502 -1 61 26 86 117 44 170 -20 26 -20 26 -272 26 -252 0 -290 3
-512 46 -84 16 -213 52 -230 64 -5 3 -31 14 -57 24 -27 10 -67 28 -90 41 -24
13 -64 35 -90 49 -91 48 -286 207 -345 281 -18 22 -38 47 -46 56 -20 24 -121
179 -156 240 -43 75 -53 100 -46 117 4 12 14 7 43 -21 53 -51 132 -117 140
-117 4 0 23 -14 42 -31 94 -86 434 -261 589 -304 25 -6 123 -35 216 -62 316
-94 435 -113 693 -113 170 0 224 4 349 25 171 30 352 73 473 115 47 15 105 33
130 40 58 14 301 121 405 178 121 66 185 111 238 167 47 48 49 52 44 99 -3 38
-10 53 -33 72 -16 13 -36 23 -45 24 -9 0 -56 -20 -105 -45 -121 -60 -350 -137
-509 -171 -127 -27 -138 -28 -440 -28 -345 1 -416 9 -685 80 -74 19 -153 39
-175 44 -42 9 -157 50 -210 74 -16 8 -50 22 -75 31 -52 20 -95 40 -205 99 -81
42 -81 42 -225 42 -135 -1 -145 -2 -145 -20 0 -10 9 -24 19 -30 11 -6 56 -34
100 -62 75 -47 227 -124 371 -189 174 -79 406 -151 594 -186 29 -5 62 -14 72
-19 10 -6 31 -10 46 -10 16 0 54 -7 85 -15 33 -8 155 -19 285 -26 125 -6 235
-13 243 -16 13 -4 13 -5 0 -13 -8 -4 -37 -13 -65 -18 -27 -5 -86 -17 -130 -26
-177 -34 -406 -45 -605 -26 -150 13 -437 79 -590 135 -255 93 -379 154 -564
277 -50 33 -109 78 -131 98 -163 154 -145 145 -279 148 -72 1 -128 -2 -138 -8z"/>
<path d="M6531 3141 c-12 -8 -13 -43 -2 -248 6 -131 13 -272 15 -313 2 -41 9
-133 15 -205 6 -71 16 -193 22 -270 6 -77 14 -185 19 -240 10 -123 20 -153 57
-160 15 -3 45 -11 65 -17 31 -9 41 -8 72 11 20 13 36 26 36 30 0 5 30 39 68
78 37 38 110 116 162 173 115 125 81 89 338 360 118 124 248 260 290 302 89
90 88 96 -17 122 -80 20 -77 22 -214 -122 -56 -58 -131 -135 -167 -172 -36
-36 -94 -97 -130 -135 -191 -207 -383 -396 -392 -387 -5 5 -14 70 -18 143 -5
74 -14 168 -19 209 -6 41 -11 133 -11 205 0 71 -5 177 -10 235 -6 58 -14 166
-18 240 -7 135 -7 135 -43 147 -58 19 -103 24 -118 14z"/>
<path d="M13675 3026 c-24 -8 -46 -23 -54 -38 -15 -25 -10 -44 45 -173 7 -16
22 -58 33 -92 21 -63 34 -96 57 -148 7 -16 27 -68 45 -115 17 -47 37 -101 44
-120 7 -19 34 -85 59 -146 25 -61 46 -116 46 -121 0 -5 16 -47 36 -93 20 -47
40 -103 45 -125 13 -52 35 -85 57 -85 37 0 120 31 126 47 6 15 -17 94 -35 118
-3 6 -10 26 -14 45 -4 19 -13 46 -20 60 -28 54 -88 207 -110 280 -13 43 -28
86 -34 96 -5 11 -26 62 -46 114 -20 52 -43 107 -50 122 -8 14 -15 34 -15 43 0
16 -11 45 -45 120 -8 17 -29 73 -47 125 -37 106 -44 111 -123 86z"/>
<path d="M12655 2689 c-104 -26 -204 -49 -221 -49 -17 0 -34 -3 -38 -7 -4 -4
-64 -22 -134 -40 -158 -41 -158 -40 -210 -49 -25 -4 -46 -14 -50 -22 -5 -15
21 -202 40 -276 5 -22 14 -60 18 -85 5 -26 20 -98 34 -161 62 -270 74 -325
101 -455 10 -44 22 -91 27 -105 5 -13 12 -55 15 -92 7 -87 16 -95 91 -79 109
23 105 19 86 116 -8 39 -18 90 -23 115 -5 25 -16 74 -24 110 -40 169 -41 178
-28 193 6 9 35 18 64 22 29 4 75 13 102 20 28 8 77 22 110 30 62 17 193 55
278 82 57 18 69 40 53 98 -17 58 -24 58 -246 0 -149 -40 -349 -88 -382 -92
-34 -5 -38 -3 -43 23 -3 16 -10 45 -16 64 -5 19 -14 55 -19 80 -5 25 -18 88
-29 140 -27 122 -26 138 2 149 12 5 103 27 202 50 99 23 196 46 215 52 19 5
87 22 150 38 103 26 116 32 124 55 7 19 5 38 -10 73 -11 26 -26 49 -34 49 -8
1 -100 -20 -205 -47z"/>
<path d="M8714 2483 c-12 -13 -37 -48 -55 -79 -19 -30 -58 -87 -87 -125 -29
-39 -70 -96 -90 -126 -20 -31 -44 -66 -52 -78 -67 -98 -117 -173 -125 -187 -5
-9 -68 -105 -140 -212 -71 -108 -148 -223 -170 -257 -22 -34 -44 -68 -50 -76
-13 -17 3 -28 73 -48 48 -14 56 -14 76 -1 13 8 62 74 111 146 88 132 88 132
204 125 64 -3 130 -11 146 -16 17 -5 77 -14 135 -20 246 -25 320 -35 328 -44
13 -14 45 -107 82 -240 17 -60 36 -115 43 -123 7 -7 39 -17 70 -22 32 -5 61
-11 66 -14 4 -3 17 1 27 9 18 13 18 17 -23 142 -23 70 -56 175 -73 233 -18 58
-42 137 -55 175 -33 101 -61 191 -80 260 -9 33 -30 103 -46 155 -16 52 -37
120 -46 150 -9 30 -19 66 -24 80 -4 14 -20 64 -34 113 -30 97 -26 93 -129 100
-53 3 -62 1 -82 -20z m94 -230 c5 -21 14 -60 19 -88 6 -27 25 -95 43 -150 17
-55 35 -116 40 -135 5 -19 21 -75 36 -123 18 -57 24 -91 18 -97 -7 -7 -27 -6
-60 0 -27 6 -89 15 -137 20 -48 5 -93 12 -99 16 -6 4 -65 10 -130 15 -66 4
-125 12 -130 17 -7 7 -5 20 8 40 27 42 104 154 163 237 27 39 82 118 122 178
40 59 79 107 86 107 7 0 16 -17 21 -37z"/>
<path d="M11083 2417 c-12 -7 -41 -34 -65 -62 -23 -27 -77 -86 -119 -130 -115
-121 -242 -259 -364 -395 -149 -166 -145 -162 -158 -157 -18 6 -24 101 -26
410 -1 157 -6 288 -12 299 -8 15 -18 17 -72 11 -104 -10 -100 5 -92 -308 3
-148 8 -315 10 -370 2 -55 7 -223 11 -373 4 -150 10 -275 15 -277 4 -3 36 -6
72 -7 43 -2 70 1 79 10 9 9 11 54 9 176 -3 163 -3 163 26 192 16 16 45 49 65
74 45 57 136 150 147 150 5 0 40 -34 79 -75 54 -58 395 -415 470 -491 9 -9 37
-14 77 -14 107 0 119 16 59 78 -20 20 -44 48 -52 62 -32 50 -128 166 -187 227
-216 222 -325 341 -325 354 0 4 24 33 54 65 183 200 466 523 466 533 0 31
-121 44 -167 18z"/>
</g>
</svg>
